<?xml version="1.0" encoding="UTF-8" standalone="no"?>
<!DOCTYPE svg PUBLIC "-//W3C//DTD SVG 1.1//EN"
 "http://www.w3.org/Graphics/SVG/1.1/DTD/svg11.dtd">
<!-- Generated by graphviz version 2.40.1 (20161225.0304)
 -->
<!-- Title: dependencies Pages: 1 -->
<svg width="1124pt" height="211pt"
 viewBox="0.00 0.00 1124.00 211.00" xmlns="http://www.w3.org/2000/svg" xmlns:xlink="http://www.w3.org/1999/xlink">
<g id="graph0" class="graph" transform="scale(1 1) rotate(0) translate(4 207)">
<title>dependencies</title>
<polygon fill="#ffffff" stroke="transparent" points="-4,4 -4,-207 1120,-207 1120,4 -4,4"/>
<text text-anchor="start" x="537.0091" y="-42.4" font-family="sans-serif" font-weight="bold" font-size="14.00" fill="#000000">Legend</text>
<polygon fill="#ffffb3" stroke="transparent" points="324,-10 324,-30 344,-30 344,-10 324,-10"/>
<text text-anchor="start" x="347.629" y="-15.4" font-family="sans-serif" font-size="14.00" fill="#000000"> &#160;Declarations</text>
<polygon fill="#8dd3c7" stroke="transparent" points="437,-10 437,-30 457,-30 457,-10 437,-10"/>
<text text-anchor="start" x="460.7251" y="-15.4" font-family="sans-serif" font-size="14.00" fill="#000000"> &#160;Module</text>
<polygon fill="#80b1d3" stroke="transparent" points="523,-10 523,-30 543,-30 543,-10 523,-10"/>
<text text-anchor="start" x="546.7812" y="-15.4" font-family="sans-serif" font-size="14.00" fill="#000000"> &#160;Bootstrap</text>
<polygon fill="#fdb462" stroke="transparent" points="620,-10 620,-30 640,-30 640,-10 620,-10"/>
<text text-anchor="start" x="643.6732" y="-15.4" font-family="sans-serif" font-size="14.00" fill="#000000"> &#160;Providers</text>
<polygon fill="#fb8072" stroke="transparent" points="716,-10 716,-30 736,-30 736,-10 716,-10"/>
<text text-anchor="start" x="739.7258" y="-15.4" font-family="sans-serif" font-size="14.00" fill="#000000"> &#160;Exports</text>
<g id="clust1" class="cluster">
<title>cluster_DetailClientModule</title>
<polygon fill="none" stroke="#000000" stroke-dasharray="1,5" points="8,-70 8,-195 1108,-195 1108,-70 8,-70"/>
</g>
<g id="clust2" class="cluster">
<title>cluster_DetailClientModule_declarations</title>
<polygon fill="none" stroke="#000000" points="282,-78 282,-130 1100,-130 1100,-78 282,-78"/>
</g>
<g id="clust8" class="cluster">
<title>cluster_DetailClientModule_imports</title>
<polygon fill="none" stroke="#000000" points="16,-78 16,-130 274,-130 274,-78 16,-78"/>
</g>
<!-- AddAttendanceComponent -->
<g id="node1" class="node">
<title>AddAttendanceComponent</title>
<polygon fill="#ffffb3" stroke="#000000" points="1091.6853,-122 922.3147,-122 922.3147,-86 1091.6853,-86 1091.6853,-122"/>
<text text-anchor="middle" x="1007" y="-99.8" font-family="Times,serif" font-size="14.00" fill="#000000">AddAttendanceComponent</text>
</g>
<!-- DetailClientModule -->
<g id="node6" class="node">
<title>DetailClientModule</title>
<polygon fill="#8dd3c7" stroke="#000000" points="591.9804,-187 588.9804,-191 567.9804,-191 564.9804,-187 464.0196,-187 464.0196,-151 591.9804,-151 591.9804,-187"/>
<text text-anchor="middle" x="528" y="-164.8" font-family="Times,serif" font-size="14.00" fill="#000000">DetailClientModule</text>
</g>
<!-- AddAttendanceComponent&#45;&gt;DetailClientModule -->
<g id="edge1" class="edge">
<title>AddAttendanceComponent&#45;&gt;DetailClientModule</title>
<path fill="none" stroke="#000000" d="M1007,-122.2921C1007,-144.2057 1007,-178 1007,-178 1007,-178 602.103,-178 602.103,-178"/>
<polygon fill="#000000" stroke="#000000" points="602.1031,-174.5001 592.103,-178 602.103,-181.5001 602.1031,-174.5001"/>
</g>
<!-- AddPayComponent -->
<g id="node2" class="node">
<title>AddPayComponent</title>
<polygon fill="#ffffb3" stroke="#000000" points="904.437,-122 777.563,-122 777.563,-86 904.437,-86 904.437,-122"/>
<text text-anchor="middle" x="841" y="-99.8" font-family="Times,serif" font-size="14.00" fill="#000000">AddPayComponent</text>
</g>
<!-- AddPayComponent&#45;&gt;DetailClientModule -->
<g id="edge2" class="edge">
<title>AddPayComponent&#45;&gt;DetailClientModule</title>
<path fill="none" stroke="#000000" d="M841,-122.1061C841,-141.3391 841,-169 841,-169 841,-169 602.0955,-169 602.0955,-169"/>
<polygon fill="#000000" stroke="#000000" points="602.0955,-165.5001 592.0955,-169 602.0955,-172.5001 602.0955,-165.5001"/>
</g>
<!-- DetailClientComponent -->
<g id="node3" class="node">
<title>DetailClientComponent</title>
<polygon fill="#ffffb3" stroke="#000000" points="759.7632,-122 610.2368,-122 610.2368,-86 759.7632,-86 759.7632,-122"/>
<text text-anchor="middle" x="685" y="-99.8" font-family="Times,serif" font-size="14.00" fill="#000000">DetailClientComponent</text>
</g>
<!-- DetailClientComponent&#45;&gt;DetailClientModule -->
<g id="edge3" class="edge">
<title>DetailClientComponent&#45;&gt;DetailClientModule</title>
<path fill="none" stroke="#000000" d="M685,-122.027C685,-138.3976 685,-160 685,-160 685,-160 602.3109,-160 602.3109,-160"/>
<polygon fill="#000000" stroke="#000000" points="602.3109,-156.5001 592.3109,-160 602.3109,-163.5001 602.3109,-156.5001"/>
</g>
<!-- InvoicesComponent -->
<g id="node4" class="node">
<title>InvoicesComponent</title>
<polygon fill="#ffffb3" stroke="#000000" points="592.2576,-122 463.7424,-122 463.7424,-86 592.2576,-86 592.2576,-122"/>
<text text-anchor="middle" x="528" y="-99.8" font-family="Times,serif" font-size="14.00" fill="#000000">InvoicesComponent</text>
</g>
<!-- InvoicesComponent&#45;&gt;DetailClientModule -->
<g id="edge4" class="edge">
<title>InvoicesComponent&#45;&gt;DetailClientModule</title>
<path fill="none" stroke="#000000" d="M528,-122.1061C528,-122.1061 528,-140.991 528,-140.991"/>
<polygon fill="#000000" stroke="#000000" points="524.5001,-140.9909 528,-150.991 531.5001,-140.991 524.5001,-140.9909"/>
</g>
<!-- UpdateClientComponent -->
<g id="node5" class="node">
<title>UpdateClientComponent</title>
<polygon fill="#ffffb3" stroke="#000000" points="445.9818,-122 290.0182,-122 290.0182,-86 445.9818,-86 445.9818,-122"/>
<text text-anchor="middle" x="368" y="-99.8" font-family="Times,serif" font-size="14.00" fill="#000000">UpdateClientComponent</text>
</g>
<!-- UpdateClientComponent&#45;&gt;DetailClientModule -->
<g id="edge5" class="edge">
<title>UpdateClientComponent&#45;&gt;DetailClientModule</title>
<path fill="none" stroke="#000000" d="M368,-122.027C368,-138.3976 368,-160 368,-160 368,-160 453.8438,-160 453.8438,-160"/>
<polygon fill="#000000" stroke="#000000" points="453.8438,-163.5001 463.8438,-160 453.8438,-156.5001 453.8438,-163.5001"/>
</g>
<!-- AppRoutingModule -->
<g id="node7" class="node">
<title>AppRoutingModule</title>
<polygon fill="#8dd3c7" stroke="#000000" points="266.2744,-122 263.2744,-126 242.2744,-126 239.2744,-122 137.7256,-122 137.7256,-86 266.2744,-86 266.2744,-122"/>
<text text-anchor="middle" x="202" y="-99.8" font-family="Times,serif" font-size="14.00" fill="#000000">AppRoutingModule</text>
</g>
<!-- AppRoutingModule&#45;&gt;DetailClientModule -->
<g id="edge6" class="edge">
<title>AppRoutingModule&#45;&gt;DetailClientModule</title>
<path fill="none" stroke="#000000" d="M202,-122.1061C202,-141.3391 202,-169 202,-169 202,-169 453.9819,-169 453.9819,-169"/>
<polygon fill="#000000" stroke="#000000" points="453.9819,-172.5001 463.9819,-169 453.9818,-165.5001 453.9819,-172.5001"/>
</g>
<!-- DiarioModule -->
<g id="node8" class="node">
<title>DiarioModule</title>
<polygon fill="#8dd3c7" stroke="#000000" points="119.8133,-122 116.8133,-126 95.8133,-126 92.8133,-122 24.1867,-122 24.1867,-86 119.8133,-86 119.8133,-122"/>
<text text-anchor="middle" x="72" y="-99.8" font-family="Times,serif" font-size="14.00" fill="#000000">DiarioModule</text>
</g>
<!-- DiarioModule&#45;&gt;DetailClientModule -->
<g id="edge7" class="edge">
<title>DiarioModule&#45;&gt;DetailClientModule</title>
<path fill="none" stroke="#000000" d="M72,-122.2921C72,-144.2057 72,-178 72,-178 72,-178 453.6335,-178 453.6335,-178"/>
<polygon fill="#000000" stroke="#000000" points="453.6335,-181.5001 463.6335,-178 453.6335,-174.5001 453.6335,-181.5001"/>
</g>
</g>
</svg>
