<?xml version="1.0" encoding="UTF-8" standalone="no"?>
<!DOCTYPE svg PUBLIC "-//W3C//DTD SVG 1.1//EN"
 "http://www.w3.org/Graphics/SVG/1.1/DTD/svg11.dtd">
<!-- Generated by graphviz version 2.40.1 (20161225.0304)
 -->
<!-- Title: dependencies Pages: 1 -->
<svg width="513pt" height="284pt"
 viewBox="0.00 0.00 513.00 284.00" xmlns="http://www.w3.org/2000/svg" xmlns:xlink="http://www.w3.org/1999/xlink">
<g id="graph0" class="graph" transform="scale(1 1) rotate(0) translate(4 280)">
<title>dependencies</title>
<polygon fill="#ffffff" stroke="transparent" points="-4,4 -4,-280 509,-280 509,4 -4,4"/>
<text text-anchor="start" x="231.5091" y="-42.4" font-family="sans-serif" font-weight="bold" font-size="14.00" fill="#000000">Legend</text>
<polygon fill="#ffffb3" stroke="transparent" points="18.5,-10 18.5,-30 38.5,-30 38.5,-10 18.5,-10"/>
<text text-anchor="start" x="42.129" y="-15.4" font-family="sans-serif" font-size="14.00" fill="#000000"> &#160;Declarations</text>
<polygon fill="#8dd3c7" stroke="transparent" points="131.5,-10 131.5,-30 151.5,-30 151.5,-10 131.5,-10"/>
<text text-anchor="start" x="155.2251" y="-15.4" font-family="sans-serif" font-size="14.00" fill="#000000"> &#160;Module</text>
<polygon fill="#80b1d3" stroke="transparent" points="217.5,-10 217.5,-30 237.5,-30 237.5,-10 217.5,-10"/>
<text text-anchor="start" x="241.2812" y="-15.4" font-family="sans-serif" font-size="14.00" fill="#000000"> &#160;Bootstrap</text>
<polygon fill="#fdb462" stroke="transparent" points="314.5,-10 314.5,-30 334.5,-30 334.5,-10 314.5,-10"/>
<text text-anchor="start" x="338.1732" y="-15.4" font-family="sans-serif" font-size="14.00" fill="#000000"> &#160;Providers</text>
<polygon fill="#fb8072" stroke="transparent" points="410.5,-10 410.5,-30 430.5,-30 430.5,-10 410.5,-10"/>
<text text-anchor="start" x="434.2258" y="-15.4" font-family="sans-serif" font-size="14.00" fill="#000000"> &#160;Exports</text>
<g id="clust1" class="cluster">
<title>cluster_DiarioModule</title>
<polygon fill="none" stroke="#000000" stroke-dasharray="1,5" points="8,-70 8,-268 497,-268 497,-70 8,-70"/>
</g>
<g id="clust2" class="cluster">
<title>cluster_DiarioModule_declarations</title>
<polygon fill="none" stroke="#000000" points="355,-78 355,-130 489,-130 489,-78 355,-78"/>
</g>
<g id="clust4" class="cluster">
<title>cluster_DiarioModule_imports</title>
<polygon fill="none" stroke="#000000" points="16,-78 16,-130 347,-130 347,-78 16,-78"/>
</g>
<g id="clust5" class="cluster">
<title>cluster_DiarioModule_exports</title>
<polygon fill="none" stroke="#000000" points="203,-208 203,-260 339,-260 339,-208 203,-208"/>
</g>
<!-- DiarioComponent -->
<g id="node1" class="node">
<title>DiarioComponent</title>
<polygon fill="#ffffb3" stroke="#000000" points="480.5954,-122 363.4046,-122 363.4046,-86 480.5954,-86 480.5954,-122"/>
<text text-anchor="middle" x="422" y="-99.8" font-family="Times,serif" font-size="14.00" fill="#000000">DiarioComponent</text>
</g>
<!-- DiarioModule -->
<g id="node2" class="node">
<title>DiarioModule</title>
<polygon fill="#8dd3c7" stroke="#000000" points="318.8133,-187 315.8133,-191 294.8133,-191 291.8133,-187 223.1867,-187 223.1867,-151 318.8133,-151 318.8133,-187"/>
<text text-anchor="middle" x="271" y="-164.8" font-family="Times,serif" font-size="14.00" fill="#000000">DiarioModule</text>
</g>
<!-- DiarioComponent&#45;&gt;DiarioModule -->
<g id="edge1" class="edge">
<title>DiarioComponent&#45;&gt;DiarioModule</title>
<path fill="none" stroke="#000000" d="M422,-122.1061C422,-141.3391 422,-169 422,-169 422,-169 328.7773,-169 328.7773,-169"/>
<polygon fill="#000000" stroke="#000000" points="328.7774,-165.5001 318.7773,-169 328.7773,-172.5001 328.7774,-165.5001"/>
</g>
<!-- DiarioComponent  -->
<g id="node5" class="node">
<title>DiarioComponent </title>
<polygon fill="#fb8072" stroke="#000000" points="331.0961,-252 210.9039,-252 210.9039,-216 331.0961,-216 331.0961,-252"/>
<text text-anchor="middle" x="271" y="-229.8" font-family="Times,serif" font-size="14.00" fill="#000000">DiarioComponent </text>
</g>
<!-- DiarioModule&#45;&gt;DiarioComponent  -->
<g id="edge4" class="edge">
<title>DiarioModule&#45;&gt;DiarioComponent </title>
<path fill="none" stroke="#000000" stroke-dasharray="5,2" d="M271,-187.1061C271,-187.1061 271,-205.991 271,-205.991"/>
<polygon fill="#000000" stroke="#000000" points="267.5001,-205.9909 271,-215.991 274.5001,-205.991 267.5001,-205.9909"/>
</g>
<!-- ActivityEntryModule -->
<g id="node3" class="node">
<title>ActivityEntryModule</title>
<polygon fill="#8dd3c7" stroke="#000000" points="339.038,-122 336.038,-126 315.038,-126 312.038,-122 202.962,-122 202.962,-86 339.038,-86 339.038,-122"/>
<text text-anchor="middle" x="271" y="-99.8" font-family="Times,serif" font-size="14.00" fill="#000000">ActivityEntryModule</text>
</g>
<!-- ActivityEntryModule&#45;&gt;DiarioModule -->
<g id="edge2" class="edge">
<title>ActivityEntryModule&#45;&gt;DiarioModule</title>
<path fill="none" stroke="#000000" d="M271,-122.1061C271,-122.1061 271,-140.991 271,-140.991"/>
<polygon fill="#000000" stroke="#000000" points="267.5001,-140.9909 271,-150.991 274.5001,-140.991 267.5001,-140.9909"/>
</g>
<!-- AddActivityEntryModule -->
<g id="node4" class="node">
<title>AddActivityEntryModule</title>
<polygon fill="#8dd3c7" stroke="#000000" points="184.1442,-122 181.1442,-126 160.1442,-126 157.1442,-122 23.8558,-122 23.8558,-86 184.1442,-86 184.1442,-122"/>
<text text-anchor="middle" x="104" y="-99.8" font-family="Times,serif" font-size="14.00" fill="#000000">AddActivityEntryModule</text>
</g>
<!-- AddActivityEntryModule&#45;&gt;DiarioModule -->
<g id="edge3" class="edge">
<title>AddActivityEntryModule&#45;&gt;DiarioModule</title>
<path fill="none" stroke="#000000" d="M104,-122.1061C104,-141.3391 104,-169 104,-169 104,-169 213.1445,-169 213.1445,-169"/>
<polygon fill="#000000" stroke="#000000" points="213.1445,-172.5001 223.1445,-169 213.1445,-165.5001 213.1445,-172.5001"/>
</g>
</g>
</svg>
