<?xml version="1.0" encoding="UTF-8" standalone="no"?>
<!DOCTYPE svg PUBLIC "-//W3C//DTD SVG 1.1//EN"
 "http://www.w3.org/Graphics/SVG/1.1/DTD/svg11.dtd">
<!-- Generated by graphviz version 2.40.1 (20161225.0304)
 -->
<!-- Title: dependencies Pages: 1 -->
<svg width="504pt" height="211pt"
 viewBox="0.00 0.00 504.00 211.00" xmlns="http://www.w3.org/2000/svg" xmlns:xlink="http://www.w3.org/1999/xlink">
<g id="graph0" class="graph" transform="scale(1 1) rotate(0) translate(4 207)">
<title>dependencies</title>
<polygon fill="#ffffff" stroke="transparent" points="-4,4 -4,-207 500,-207 500,4 -4,4"/>
<text text-anchor="start" x="227.0091" y="-42.4" font-family="sans-serif" font-weight="bold" font-size="14.00" fill="#000000">Legend</text>
<polygon fill="#ffffb3" stroke="transparent" points="14,-10 14,-30 34,-30 34,-10 14,-10"/>
<text text-anchor="start" x="37.629" y="-15.4" font-family="sans-serif" font-size="14.00" fill="#000000"> &#160;Declarations</text>
<polygon fill="#8dd3c7" stroke="transparent" points="127,-10 127,-30 147,-30 147,-10 127,-10"/>
<text text-anchor="start" x="150.7251" y="-15.4" font-family="sans-serif" font-size="14.00" fill="#000000"> &#160;Module</text>
<polygon fill="#80b1d3" stroke="transparent" points="213,-10 213,-30 233,-30 233,-10 213,-10"/>
<text text-anchor="start" x="236.7812" y="-15.4" font-family="sans-serif" font-size="14.00" fill="#000000"> &#160;Bootstrap</text>
<polygon fill="#fdb462" stroke="transparent" points="310,-10 310,-30 330,-30 330,-10 310,-10"/>
<text text-anchor="start" x="333.6732" y="-15.4" font-family="sans-serif" font-size="14.00" fill="#000000"> &#160;Providers</text>
<polygon fill="#fb8072" stroke="transparent" points="406,-10 406,-30 426,-30 426,-10 406,-10"/>
<text text-anchor="start" x="429.7258" y="-15.4" font-family="sans-serif" font-size="14.00" fill="#000000"> &#160;Exports</text>
<g id="clust1" class="cluster">
<title>cluster_ExpensesModule</title>
<polygon fill="none" stroke="#000000" stroke-dasharray="1,5" points="76,-70 76,-195 420,-195 420,-70 76,-70"/>
</g>
<g id="clust2" class="cluster">
<title>cluster_ExpensesModule_declarations</title>
<polygon fill="none" stroke="#000000" points="84,-78 84,-130 412,-130 412,-78 84,-78"/>
</g>
<!-- ExpensesComponent -->
<g id="node1" class="node">
<title>ExpensesComponent</title>
<polygon fill="#ffffb3" stroke="#000000" points="404.2036,-122 269.7964,-122 269.7964,-86 404.2036,-86 404.2036,-122"/>
<text text-anchor="middle" x="337" y="-99.8" font-family="Times,serif" font-size="14.00" fill="#000000">ExpensesComponent</text>
</g>
<!-- ExpensesModule -->
<g id="node3" class="node">
<title>ExpensesModule</title>
<polygon fill="#8dd3c7" stroke="#000000" points="310.4216,-187 307.4216,-191 286.4216,-191 283.4216,-187 197.5784,-187 197.5784,-151 310.4216,-151 310.4216,-187"/>
<text text-anchor="middle" x="254" y="-164.8" font-family="Times,serif" font-size="14.00" fill="#000000">ExpensesModule</text>
</g>
<!-- ExpensesComponent&#45;&gt;ExpensesModule -->
<g id="edge1" class="edge">
<title>ExpensesComponent&#45;&gt;ExpensesModule</title>
<path fill="none" stroke="#000000" d="M290.0544,-122.1061C290.0544,-122.1061 290.0544,-140.991 290.0544,-140.991"/>
<polygon fill="#000000" stroke="#000000" points="286.5544,-140.9909 290.0544,-150.991 293.5544,-140.991 286.5544,-140.9909"/>
</g>
<!-- InsertExpenseComponent -->
<g id="node2" class="node">
<title>InsertExpenseComponent</title>
<polygon fill="#ffffb3" stroke="#000000" points="252.1302,-122 91.8698,-122 91.8698,-86 252.1302,-86 252.1302,-122"/>
<text text-anchor="middle" x="172" y="-99.8" font-family="Times,serif" font-size="14.00" fill="#000000">InsertExpenseComponent</text>
</g>
<!-- InsertExpenseComponent&#45;&gt;ExpensesModule -->
<g id="edge2" class="edge">
<title>InsertExpenseComponent&#45;&gt;ExpensesModule</title>
<path fill="none" stroke="#000000" d="M225.0523,-122.1061C225.0523,-122.1061 225.0523,-140.991 225.0523,-140.991"/>
<polygon fill="#000000" stroke="#000000" points="221.5523,-140.9909 225.0523,-150.991 228.5523,-140.991 221.5523,-140.9909"/>
</g>
</g>
</svg>
