<?xml version="1.0" encoding="UTF-8" standalone="no"?>
<!DOCTYPE svg PUBLIC "-//W3C//DTD SVG 1.1//EN"
 "http://www.w3.org/Graphics/SVG/1.1/DTD/svg11.dtd">
<!-- Generated by graphviz version 2.40.1 (20161225.0304)
 -->
<!-- Title: dependencies Pages: 1 -->
<svg width="615pt" height="211pt"
 viewBox="0.00 0.00 615.00 211.00" xmlns="http://www.w3.org/2000/svg" xmlns:xlink="http://www.w3.org/1999/xlink">
<g id="graph0" class="graph" transform="scale(1 1) rotate(0) translate(4 207)">
<title>dependencies</title>
<polygon fill="#ffffff" stroke="transparent" points="-4,4 -4,-207 611,-207 611,4 -4,4"/>
<text text-anchor="start" x="282.5091" y="-42.4" font-family="sans-serif" font-weight="bold" font-size="14.00" fill="#000000">Legend</text>
<polygon fill="#ffffb3" stroke="transparent" points="69.5,-10 69.5,-30 89.5,-30 89.5,-10 69.5,-10"/>
<text text-anchor="start" x="93.129" y="-15.4" font-family="sans-serif" font-size="14.00" fill="#000000"> &#160;Declarations</text>
<polygon fill="#8dd3c7" stroke="transparent" points="182.5,-10 182.5,-30 202.5,-30 202.5,-10 182.5,-10"/>
<text text-anchor="start" x="206.2251" y="-15.4" font-family="sans-serif" font-size="14.00" fill="#000000"> &#160;Module</text>
<polygon fill="#80b1d3" stroke="transparent" points="268.5,-10 268.5,-30 288.5,-30 288.5,-10 268.5,-10"/>
<text text-anchor="start" x="292.2812" y="-15.4" font-family="sans-serif" font-size="14.00" fill="#000000"> &#160;Bootstrap</text>
<polygon fill="#fdb462" stroke="transparent" points="365.5,-10 365.5,-30 385.5,-30 385.5,-10 365.5,-10"/>
<text text-anchor="start" x="389.1732" y="-15.4" font-family="sans-serif" font-size="14.00" fill="#000000"> &#160;Providers</text>
<polygon fill="#fb8072" stroke="transparent" points="461.5,-10 461.5,-30 481.5,-30 481.5,-10 461.5,-10"/>
<text text-anchor="start" x="485.2258" y="-15.4" font-family="sans-serif" font-size="14.00" fill="#000000"> &#160;Exports</text>
<g id="clust1" class="cluster">
<title>cluster_ClientesModule</title>
<polygon fill="none" stroke="#000000" stroke-dasharray="1,5" points="8,-70 8,-195 599,-195 599,-70 8,-70"/>
</g>
<g id="clust2" class="cluster">
<title>cluster_ClientesModule_declarations</title>
<polygon fill="none" stroke="#000000" points="282,-78 282,-130 591,-130 591,-78 282,-78"/>
</g>
<g id="clust5" class="cluster">
<title>cluster_ClientesModule_imports</title>
<polygon fill="none" stroke="#000000" points="16,-78 16,-130 274,-130 274,-78 16,-78"/>
</g>
<!-- ClientesComponent -->
<g id="node1" class="node">
<title>ClientesComponent</title>
<polygon fill="#ffffb3" stroke="#000000" points="582.7148,-122 455.2852,-122 455.2852,-86 582.7148,-86 582.7148,-122"/>
<text text-anchor="middle" x="519" y="-99.8" font-family="Times,serif" font-size="14.00" fill="#000000">ClientesComponent</text>
</g>
<!-- ClientesModule -->
<g id="node3" class="node">
<title>ClientesModule</title>
<polygon fill="#8dd3c7" stroke="#000000" points="335.9329,-187 332.9329,-191 311.9329,-191 308.9329,-187 230.0671,-187 230.0671,-151 335.9329,-151 335.9329,-187"/>
<text text-anchor="middle" x="283" y="-164.8" font-family="Times,serif" font-size="14.00" fill="#000000">ClientesModule</text>
</g>
<!-- ClientesComponent&#45;&gt;ClientesModule -->
<g id="edge1" class="edge">
<title>ClientesComponent&#45;&gt;ClientesModule</title>
<path fill="none" stroke="#000000" d="M519,-122.1061C519,-141.3391 519,-169 519,-169 519,-169 345.963,-169 345.963,-169"/>
<polygon fill="#000000" stroke="#000000" points="345.963,-165.5001 335.963,-169 345.963,-172.5001 345.963,-165.5001"/>
</g>
<!-- InsertClientComponent -->
<g id="node2" class="node">
<title>InsertClientComponent</title>
<polygon fill="#ffffb3" stroke="#000000" points="437.927,-122 290.073,-122 290.073,-86 437.927,-86 437.927,-122"/>
<text text-anchor="middle" x="364" y="-99.8" font-family="Times,serif" font-size="14.00" fill="#000000">InsertClientComponent</text>
</g>
<!-- InsertClientComponent&#45;&gt;ClientesModule -->
<g id="edge2" class="edge">
<title>InsertClientComponent&#45;&gt;ClientesModule</title>
<path fill="none" stroke="#000000" d="M313.0014,-122.1061C313.0014,-122.1061 313.0014,-140.991 313.0014,-140.991"/>
<polygon fill="#000000" stroke="#000000" points="309.5015,-140.9909 313.0014,-150.991 316.5015,-140.991 309.5015,-140.9909"/>
</g>
<!-- AppRoutingModule -->
<g id="node4" class="node">
<title>AppRoutingModule</title>
<polygon fill="#8dd3c7" stroke="#000000" points="266.2744,-122 263.2744,-126 242.2744,-126 239.2744,-122 137.7256,-122 137.7256,-86 266.2744,-86 266.2744,-122"/>
<text text-anchor="middle" x="202" y="-99.8" font-family="Times,serif" font-size="14.00" fill="#000000">AppRoutingModule</text>
</g>
<!-- AppRoutingModule&#45;&gt;ClientesModule -->
<g id="edge3" class="edge">
<title>AppRoutingModule&#45;&gt;ClientesModule</title>
<path fill="none" stroke="#000000" d="M248.3356,-122.1061C248.3356,-122.1061 248.3356,-140.991 248.3356,-140.991"/>
<polygon fill="#000000" stroke="#000000" points="244.8356,-140.9909 248.3356,-150.991 251.8356,-140.991 244.8356,-140.9909"/>
</g>
<!-- DiarioModule -->
<g id="node5" class="node">
<title>DiarioModule</title>
<polygon fill="#8dd3c7" stroke="#000000" points="119.8133,-122 116.8133,-126 95.8133,-126 92.8133,-122 24.1867,-122 24.1867,-86 119.8133,-86 119.8133,-122"/>
<text text-anchor="middle" x="72" y="-99.8" font-family="Times,serif" font-size="14.00" fill="#000000">DiarioModule</text>
</g>
<!-- DiarioModule&#45;&gt;ClientesModule -->
<g id="edge4" class="edge">
<title>DiarioModule&#45;&gt;ClientesModule</title>
<path fill="none" stroke="#000000" d="M72,-122.1061C72,-141.3391 72,-169 72,-169 72,-169 220.0281,-169 220.0281,-169"/>
<polygon fill="#000000" stroke="#000000" points="220.0282,-172.5001 230.0281,-169 220.0281,-165.5001 220.0282,-172.5001"/>
</g>
</g>
</svg>
