<?xml version="1.0" encoding="UTF-8" standalone="no"?>
<!DOCTYPE svg PUBLIC "-//W3C//DTD SVG 1.1//EN"
 "http://www.w3.org/Graphics/SVG/1.1/DTD/svg11.dtd">
<!-- Generated by graphviz version 2.40.1 (20161225.0304)
 -->
<!-- Title: dependencies Pages: 1 -->
<svg width="3907pt" height="496pt"
 viewBox="0.00 0.00 3907.00 496.00" xmlns="http://www.w3.org/2000/svg" xmlns:xlink="http://www.w3.org/1999/xlink">
<g id="graph0" class="graph" transform="scale(1 1) rotate(0) translate(4 492)">
<title>dependencies</title>
<polygon fill="#ffffff" stroke="transparent" points="-4,4 -4,-492 3903,-492 3903,4 -4,4"/>
<text text-anchor="start" x="1928.5091" y="-42.4" font-family="sans-serif" font-weight="bold" font-size="14.00" fill="#000000">Legend</text>
<polygon fill="#ffffb3" stroke="transparent" points="1715.5,-10 1715.5,-30 1735.5,-30 1735.5,-10 1715.5,-10"/>
<text text-anchor="start" x="1739.129" y="-15.4" font-family="sans-serif" font-size="14.00" fill="#000000"> &#160;Declarations</text>
<polygon fill="#8dd3c7" stroke="transparent" points="1828.5,-10 1828.5,-30 1848.5,-30 1848.5,-10 1828.5,-10"/>
<text text-anchor="start" x="1852.2251" y="-15.4" font-family="sans-serif" font-size="14.00" fill="#000000"> &#160;Module</text>
<polygon fill="#80b1d3" stroke="transparent" points="1914.5,-10 1914.5,-30 1934.5,-30 1934.5,-10 1914.5,-10"/>
<text text-anchor="start" x="1938.2812" y="-15.4" font-family="sans-serif" font-size="14.00" fill="#000000"> &#160;Bootstrap</text>
<polygon fill="#fdb462" stroke="transparent" points="2011.5,-10 2011.5,-30 2031.5,-30 2031.5,-10 2011.5,-10"/>
<text text-anchor="start" x="2035.1732" y="-15.4" font-family="sans-serif" font-size="14.00" fill="#000000"> &#160;Providers</text>
<polygon fill="#fb8072" stroke="transparent" points="2107.5,-10 2107.5,-30 2127.5,-30 2127.5,-10 2107.5,-10"/>
<text text-anchor="start" x="2131.2258" y="-15.4" font-family="sans-serif" font-size="14.00" fill="#000000"> &#160;Exports</text>
<g id="clust1" class="cluster">
<title>cluster_ActivityEntryModule</title>
<polygon fill="none" stroke="#000000" stroke-dasharray="1,5" points="8,-70 8,-282 202,-282 202,-70 8,-70"/>
</g>
<g id="clust2" class="cluster">
<title>cluster_ActivityEntryModule_declarations</title>
<polygon fill="none" stroke="#000000" points="20,-78 20,-130 194,-130 194,-78 20,-78"/>
</g>
<g id="clust5" class="cluster">
<title>cluster_ActivityEntryModule_exports</title>
<polygon fill="none" stroke="#000000" points="16,-222 16,-274 194,-274 194,-222 16,-222"/>
</g>
<g id="clust8" class="cluster">
<title>cluster_AddActivityEntryModule</title>
<polygon fill="none" stroke="#000000" stroke-dasharray="1,5" points="2695,-70 2695,-282 2913,-282 2913,-70 2695,-70"/>
</g>
<g id="clust9" class="cluster">
<title>cluster_AddActivityEntryModule_declarations</title>
<polygon fill="none" stroke="#000000" points="2703,-78 2703,-130 2901,-130 2901,-78 2703,-78"/>
</g>
<g id="clust12" class="cluster">
<title>cluster_AddActivityEntryModule_exports</title>
<polygon fill="none" stroke="#000000" points="2703,-222 2703,-274 2905,-274 2905,-222 2703,-222"/>
</g>
<g id="clust15" class="cluster">
<title>cluster_AppModule</title>
<polygon fill="none" stroke="#000000" stroke-dasharray="1,5" points="1296,-214 1296,-480 2526,-480 2526,-214 1296,-214"/>
</g>
<g id="clust16" class="cluster">
<title>cluster_AppModule_declarations</title>
<polygon fill="none" stroke="#000000" points="2088,-290 2088,-342 2518,-342 2518,-290 2088,-290"/>
</g>
<g id="clust20" class="cluster">
<title>cluster_AppModule_imports</title>
<polygon fill="none" stroke="#000000" points="1304,-222 1304,-342 2080,-342 2080,-222 1304,-222"/>
</g>
<g id="clust22" class="cluster">
<title>cluster_AppModule_bootstrap</title>
<polygon fill="none" stroke="#000000" points="1728,-420 1728,-472 1852,-472 1852,-420 1728,-420"/>
</g>
<g id="clust36" class="cluster">
<title>cluster_ClientesModule</title>
<polygon fill="none" stroke="#000000" stroke-dasharray="1,5" points="843,-214 843,-282 1288,-282 1288,-214 843,-214"/>
</g>
<g id="clust37" class="cluster">
<title>cluster_ClientesModule_declarations</title>
<polygon fill="none" stroke="#000000" points="851,-222 851,-274 1160,-274 1160,-222 851,-222"/>
</g>
<g id="clust40" class="cluster">
<title>cluster_ClientesModule_imports</title>
<polygon fill="none" stroke="#000000" points="1168,-222 1168,-274 1280,-274 1280,-222 1168,-222"/>
</g>
<g id="clust44" class="cluster">
<title>cluster_CompanyModule</title>
<polygon fill="none" stroke="#000000" stroke-dasharray="1,5" points="1512,-138 1512,-206 1680,-206 1680,-138 1512,-138"/>
</g>
<g id="clust45" class="cluster">
<title>cluster_CompanyModule_declarations</title>
<polygon fill="none" stroke="#000000" points="1520,-146 1520,-198 1672,-198 1672,-146 1520,-146"/>
</g>
<g id="clust51" class="cluster">
<title>cluster_ContabilidadModule</title>
<polygon fill="none" stroke="#000000" stroke-dasharray="1,5" points="1688,-138 1688,-206 2687,-206 2687,-138 1688,-138"/>
</g>
<g id="clust52" class="cluster">
<title>cluster_ContabilidadModule_declarations</title>
<polygon fill="none" stroke="#000000" points="1696,-146 1696,-198 2679,-198 2679,-146 1696,-146"/>
</g>
<g id="clust63" class="cluster">
<title>cluster_DetailClientModule</title>
<polygon fill="none" stroke="#000000" stroke-dasharray="1,5" points="2921,-214 2921,-282 3755,-282 3755,-214 2921,-214"/>
</g>
<g id="clust64" class="cluster">
<title>cluster_DetailClientModule_declarations</title>
<polygon fill="none" stroke="#000000" points="2929,-222 2929,-274 3747,-274 3747,-222 2929,-222"/>
</g>
<g id="clust74" class="cluster">
<title>cluster_DiarioModule</title>
<polygon fill="none" stroke="#000000" stroke-dasharray="1,5" points="210,-138 210,-206 504,-206 504,-138 210,-138"/>
</g>
<g id="clust75" class="cluster">
<title>cluster_DiarioModule_declarations</title>
<polygon fill="none" stroke="#000000" points="362,-146 362,-198 496,-198 496,-146 362,-146"/>
</g>
<g id="clust78" class="cluster">
<title>cluster_DiarioModule_exports</title>
<polygon fill="none" stroke="#000000" points="218,-146 218,-198 354,-198 354,-146 218,-146"/>
</g>
<g id="clust81" class="cluster">
<title>cluster_ExpensesModule</title>
<polygon fill="none" stroke="#000000" stroke-dasharray="1,5" points="3763,-222 3763,-274 3891,-274 3891,-222 3763,-222"/>
</g>
<g id="clust107" class="cluster">
<title>cluster_PricesModule</title>
<polygon fill="none" stroke="#000000" stroke-dasharray="1,5" points="512,-138 512,-206 660,-206 660,-138 512,-138"/>
</g>
<g id="clust108" class="cluster">
<title>cluster_PricesModule_declarations</title>
<polygon fill="none" stroke="#000000" points="520,-146 520,-198 652,-198 652,-146 520,-146"/>
</g>
<g id="clust120" class="cluster">
<title>cluster_ScheduleModule</title>
<polygon fill="none" stroke="#000000" stroke-dasharray="1,5" points="668,-138 668,-206 1350,-206 1350,-138 668,-138"/>
</g>
<g id="clust121" class="cluster">
<title>cluster_ScheduleModule_declarations</title>
<polygon fill="none" stroke="#000000" points="676,-146 676,-198 1342,-198 1342,-146 676,-146"/>
</g>
<g id="clust130" class="cluster">
<title>cluster_UsersModule</title>
<polygon fill="none" stroke="#000000" stroke-dasharray="1,5" points="1358,-138 1358,-206 1504,-206 1504,-138 1358,-138"/>
</g>
<g id="clust131" class="cluster">
<title>cluster_UsersModule_declarations</title>
<polygon fill="none" stroke="#000000" points="1366,-146 1366,-198 1496,-198 1496,-146 1366,-146"/>
</g>
<!-- ActivityEntryComponent -->
<g id="node1" class="node">
<title>ActivityEntryComponent</title>
<polygon fill="#ffffb3" stroke="#000000" points="186.3201,-122 27.6799,-122 27.6799,-86 186.3201,-86 186.3201,-122"/>
<text text-anchor="middle" x="107" y="-99.8" font-family="Times,serif" font-size="14.00" fill="#000000">ActivityEntryComponent</text>
</g>
<!-- ActivityEntryModule -->
<g id="node2" class="node">
<title>ActivityEntryModule</title>
<polygon fill="#8dd3c7" stroke="#000000" points="184.038,-190 181.038,-194 160.038,-194 157.038,-190 47.962,-190 47.962,-154 184.038,-154 184.038,-190"/>
<text text-anchor="middle" x="116" y="-167.8" font-family="Times,serif" font-size="14.00" fill="#000000">ActivityEntryModule</text>
</g>
<!-- ActivityEntryComponent&#45;&gt;ActivityEntryModule -->
<g id="edge1" class="edge">
<title>ActivityEntryComponent&#45;&gt;ActivityEntryModule</title>
<path fill="none" stroke="#000000" d="M116,-122.2228C116,-122.2228 116,-143.7269 116,-143.7269"/>
<polygon fill="#000000" stroke="#000000" points="112.5001,-143.7269 116,-153.7269 119.5001,-143.727 112.5001,-143.7269"/>
</g>
<!-- ActivityEntryComponent  -->
<g id="node3" class="node">
<title>ActivityEntryComponent </title>
<polygon fill="#fb8072" stroke="#000000" points="185.8199,-266 24.1801,-266 24.1801,-230 185.8199,-230 185.8199,-266"/>
<text text-anchor="middle" x="105" y="-243.8" font-family="Times,serif" font-size="14.00" fill="#000000">ActivityEntryComponent </text>
</g>
<!-- ActivityEntryModule&#45;&gt;ActivityEntryComponent  -->
<g id="edge2" class="edge">
<title>ActivityEntryModule&#45;&gt;ActivityEntryComponent </title>
<path fill="none" stroke="#000000" stroke-dasharray="5,2" d="M81.8657,-190.0109C81.8657,-190.0109 81.8657,-219.855 81.8657,-219.855"/>
<polygon fill="#000000" stroke="#000000" points="78.3658,-219.8549 81.8657,-229.855 85.3658,-219.855 78.3658,-219.8549"/>
</g>
<!-- ScheduleModule -->
<g id="node17" class="node">
<title>ScheduleModule</title>
<polygon fill="#8dd3c7" stroke="#000000" points="1534.3669,-266 1531.3669,-270 1510.3669,-270 1507.3669,-266 1423.6331,-266 1423.6331,-230 1534.3669,-230 1534.3669,-266"/>
<text text-anchor="middle" x="1479" y="-243.8" font-family="Times,serif" font-size="14.00" fill="#000000">ScheduleModule</text>
</g>
<!-- ActivityEntryModule&#45;&gt;ScheduleModule -->
<g id="edge46" class="edge">
<title>ActivityEntryModule&#45;&gt;ScheduleModule</title>
<path fill="none" stroke="#000000" d="M150.1343,-190.1467C150.1343,-203.7395 150.1343,-220 150.1343,-220 150.1343,-220 1432.7145,-220 1432.7145,-220 1432.7145,-220 1432.7145,-220.9793 1432.7145,-220.9793"/>
<polygon fill="#000000" stroke="#000000" points="1429.2146,-219.793 1432.7145,-229.793 1436.2146,-219.7931 1429.2146,-219.793"/>
</g>
<!-- DiarioModule -->
<g id="node22" class="node">
<title>DiarioModule</title>
<polygon fill="#8dd3c7" stroke="#000000" points="1271.8133,-266 1268.8133,-270 1247.8133,-270 1244.8133,-266 1176.1867,-266 1176.1867,-230 1271.8133,-230 1271.8133,-266"/>
<text text-anchor="middle" x="1224" y="-243.8" font-family="Times,serif" font-size="14.00" fill="#000000">DiarioModule</text>
</g>
<!-- ActivityEntryModule&#45;&gt;DiarioModule -->
<g id="edge36" class="edge">
<title>ActivityEntryModule&#45;&gt;DiarioModule</title>
<path fill="none" stroke="#000000" d="M116,-190.027C116,-206.3976 116,-228 116,-228 116,-228 1188.0723,-228 1188.0723,-228 1188.0723,-228 1188.0723,-228.1846 1188.0723,-228.1846"/>
<polygon fill="#000000" stroke="#000000" points="1184.5729,-219.8455 1188.0723,-229.8457 1191.5729,-219.8459 1184.5729,-219.8455"/>
</g>
<!-- AddActivityEntryComponent -->
<g id="node4" class="node">
<title>AddActivityEntryComponent</title>
<polygon fill="#ffffb3" stroke="#000000" points="2893.4269,-122 2710.5731,-122 2710.5731,-86 2893.4269,-86 2893.4269,-122"/>
<text text-anchor="middle" x="2802" y="-99.8" font-family="Times,serif" font-size="14.00" fill="#000000">AddActivityEntryComponent</text>
</g>
<!-- AddActivityEntryModule -->
<g id="node5" class="node">
<title>AddActivityEntryModule</title>
<polygon fill="#8dd3c7" stroke="#000000" points="2872.1442,-190 2869.1442,-194 2848.1442,-194 2845.1442,-190 2711.8558,-190 2711.8558,-154 2872.1442,-154 2872.1442,-190"/>
<text text-anchor="middle" x="2792" y="-167.8" font-family="Times,serif" font-size="14.00" fill="#000000">AddActivityEntryModule</text>
</g>
<!-- AddActivityEntryComponent&#45;&gt;AddActivityEntryModule -->
<g id="edge3" class="edge">
<title>AddActivityEntryComponent&#45;&gt;AddActivityEntryModule</title>
<path fill="none" stroke="#000000" d="M2792,-122.2228C2792,-122.2228 2792,-143.7269 2792,-143.7269"/>
<polygon fill="#000000" stroke="#000000" points="2788.5001,-143.7269 2792,-153.7269 2795.5001,-143.727 2788.5001,-143.7269"/>
</g>
<!-- AddActivityEntryComponent  -->
<g id="node6" class="node">
<title>AddActivityEntryComponent </title>
<polygon fill="#fb8072" stroke="#000000" points="2896.9264,-266 2711.0736,-266 2711.0736,-230 2896.9264,-230 2896.9264,-266"/>
<text text-anchor="middle" x="2804" y="-243.8" font-family="Times,serif" font-size="14.00" fill="#000000">AddActivityEntryComponent </text>
</g>
<!-- AddActivityEntryModule&#45;&gt;AddActivityEntryComponent  -->
<g id="edge4" class="edge">
<title>AddActivityEntryModule&#45;&gt;AddActivityEntryComponent </title>
<path fill="none" stroke="#000000" stroke-dasharray="5,2" d="M2832.161,-190.0109C2832.161,-190.0109 2832.161,-219.855 2832.161,-219.855"/>
<polygon fill="#000000" stroke="#000000" points="2828.661,-219.8549 2832.161,-229.855 2835.661,-219.855 2828.661,-219.8549"/>
</g>
<!-- AddActivityEntryModule&#45;&gt;ScheduleModule -->
<g id="edge47" class="edge">
<title>AddActivityEntryModule&#45;&gt;ScheduleModule</title>
<path fill="none" stroke="#000000" d="M2792,-190.1223C2792,-192.9729 2792,-195 2792,-195 2792,-195 1507.8573,-195 1507.8573,-195 1507.8573,-195 1507.8573,-219.7604 1507.8573,-219.7604"/>
<polygon fill="#000000" stroke="#000000" points="1504.3574,-219.7604 1507.8573,-229.7604 1511.3574,-219.7604 1504.3574,-219.7604"/>
</g>
<!-- AddActivityEntryModule&#45;&gt;DiarioModule -->
<g id="edge37" class="edge">
<title>AddActivityEntryModule&#45;&gt;DiarioModule</title>
<path fill="none" stroke="#000000" d="M2751.8391,-190.08C2751.8391,-191.8464 2751.8391,-193 2751.8391,-193 2751.8391,-193 1236.6658,-193 1236.6658,-193 1236.6658,-193 1236.6658,-219.9909 1236.6658,-219.9909"/>
<polygon fill="#000000" stroke="#000000" points="1233.1659,-219.9909 1236.6658,-229.9909 1240.1659,-219.991 1233.1659,-219.9909"/>
</g>
<!-- AppComponent -->
<g id="node7" class="node">
<title>AppComponent</title>
<polygon fill="#ffffb3" stroke="#000000" points="2341.9399,-334 2236.0601,-334 2236.0601,-298 2341.9399,-298 2341.9399,-334"/>
<text text-anchor="middle" x="2289" y="-311.8" font-family="Times,serif" font-size="14.00" fill="#000000">AppComponent</text>
</g>
<!-- AppModule -->
<g id="node10" class="node">
<title>AppModule</title>
<polygon fill="#8dd3c7" stroke="#000000" points="1831.6571,-399 1828.6571,-403 1807.6571,-403 1804.6571,-399 1748.3429,-399 1748.3429,-363 1831.6571,-363 1831.6571,-399"/>
<text text-anchor="middle" x="1790" y="-376.8" font-family="Times,serif" font-size="14.00" fill="#000000">AppModule</text>
</g>
<!-- AppComponent&#45;&gt;AppModule -->
<g id="edge5" class="edge">
<title>AppComponent&#45;&gt;AppModule</title>
<path fill="none" stroke="#000000" d="M2289,-334.2843C2289,-355.3211 2289,-387 2289,-387 2289,-387 1841.6862,-387 1841.6862,-387"/>
<polygon fill="#000000" stroke="#000000" points="1841.6862,-383.5001 1831.6862,-387 1841.6861,-390.5001 1841.6862,-383.5001"/>
</g>
<!-- HeaderComponent -->
<g id="node8" class="node">
<title>HeaderComponent</title>
<polygon fill="#ffffb3" stroke="#000000" points="2217.7437,-334 2096.2563,-334 2096.2563,-298 2217.7437,-298 2217.7437,-334"/>
<text text-anchor="middle" x="2157" y="-311.8" font-family="Times,serif" font-size="14.00" fill="#000000">HeaderComponent</text>
</g>
<!-- HeaderComponent&#45;&gt;AppModule -->
<g id="edge6" class="edge">
<title>HeaderComponent&#45;&gt;AppModule</title>
<path fill="none" stroke="#000000" d="M2157,-334.1061C2157,-353.3391 2157,-381 2157,-381 2157,-381 1841.7423,-381 1841.7423,-381"/>
<polygon fill="#000000" stroke="#000000" points="1841.7423,-377.5001 1831.7423,-381 1841.7422,-384.5001 1841.7423,-377.5001"/>
</g>
<!-- InvoicesListComponent -->
<g id="node9" class="node">
<title>InvoicesListComponent</title>
<polygon fill="#ffffb3" stroke="#000000" points="2510.0365,-334 2359.9635,-334 2359.9635,-298 2510.0365,-298 2510.0365,-334"/>
<text text-anchor="middle" x="2435" y="-311.8" font-family="Times,serif" font-size="14.00" fill="#000000">InvoicesListComponent</text>
</g>
<!-- InvoicesListComponent&#45;&gt;AppModule -->
<g id="edge7" class="edge">
<title>InvoicesListComponent&#45;&gt;AppModule</title>
<path fill="none" stroke="#000000" d="M2435,-334.2479C2435,-357.0179 2435,-393 2435,-393 2435,-393 1841.8233,-393 1841.8233,-393"/>
<polygon fill="#000000" stroke="#000000" points="1841.8233,-389.5001 1831.8233,-393 1841.8232,-396.5001 1841.8233,-389.5001"/>
</g>
<!-- AppComponent  -->
<g id="node19" class="node">
<title>AppComponent </title>
<polygon fill="#80b1d3" stroke="#000000" points="1844.439,-464 1735.561,-464 1735.561,-428 1844.439,-428 1844.439,-464"/>
<text text-anchor="middle" x="1790" y="-441.8" font-family="Times,serif" font-size="14.00" fill="#000000">AppComponent </text>
</g>
<!-- AppModule&#45;&gt;AppComponent  -->
<g id="edge16" class="edge">
<title>AppModule&#45;&gt;AppComponent </title>
<path fill="none" stroke="#000000" stroke-dasharray="1,5" d="M1790,-399.1061C1790,-399.1061 1790,-417.991 1790,-417.991"/>
<polygon fill="#000000" stroke="#000000" points="1786.5001,-417.9909 1790,-427.991 1793.5001,-417.991 1786.5001,-417.9909"/>
</g>
<!-- AppRoutingModule -->
<g id="node11" class="node">
<title>AppRoutingModule</title>
<polygon fill="#8dd3c7" stroke="#000000" points="2072.2744,-266 2069.2744,-270 2048.2744,-270 2045.2744,-266 1943.7256,-266 1943.7256,-230 2072.2744,-230 2072.2744,-266"/>
<text text-anchor="middle" x="2008" y="-243.8" font-family="Times,serif" font-size="14.00" fill="#000000">AppRoutingModule</text>
</g>
<!-- AppRoutingModule&#45;&gt;AppModule -->
<g id="edge8" class="edge">
<title>AppRoutingModule&#45;&gt;AppModule</title>
<path fill="none" stroke="#000000" d="M1943.7135,-254C1939.9907,-254 1937.7216,-254 1937.7216,-254 1937.7216,-254 1937.7216,-369 1937.7216,-369 1937.7216,-369 1841.9359,-369 1841.9359,-369"/>
<polygon fill="#000000" stroke="#000000" points="1841.936,-365.5001 1831.9359,-369 1841.9359,-372.5001 1841.936,-365.5001"/>
</g>
<!-- ClientesModule -->
<g id="node12" class="node">
<title>ClientesModule</title>
<polygon fill="#8dd3c7" stroke="#000000" points="1914.9329,-334 1911.9329,-338 1890.9329,-338 1887.9329,-334 1809.0671,-334 1809.0671,-298 1914.9329,-298 1914.9329,-334"/>
<text text-anchor="middle" x="1862" y="-311.8" font-family="Times,serif" font-size="14.00" fill="#000000">ClientesModule</text>
</g>
<!-- AppRoutingModule&#45;&gt;ClientesModule -->
<g id="edge19" class="edge">
<title>AppRoutingModule&#45;&gt;ClientesModule</title>
<path fill="none" stroke="#000000" d="M1943.3988,-242C1936.4433,-242 1931.8303,-242 1931.8303,-242 1931.8303,-242 1931.8303,-316 1931.8303,-316 1931.8303,-316 1924.9263,-316 1924.9263,-316"/>
<polygon fill="#000000" stroke="#000000" points="1924.9264,-312.5001 1914.9263,-316 1924.9263,-319.5001 1924.9264,-312.5001"/>
</g>
<!-- DetailClientModule -->
<g id="node15" class="node">
<title>DetailClientModule</title>
<polygon fill="#8dd3c7" stroke="#000000" points="2071.9804,-334 2068.9804,-338 2047.9804,-338 2044.9804,-334 1944.0196,-334 1944.0196,-298 2071.9804,-298 2071.9804,-334"/>
<text text-anchor="middle" x="2008" y="-311.8" font-family="Times,serif" font-size="14.00" fill="#000000">DetailClientModule</text>
</g>
<!-- AppRoutingModule&#45;&gt;DetailClientModule -->
<g id="edge33" class="edge">
<title>AppRoutingModule&#45;&gt;DetailClientModule</title>
<path fill="none" stroke="#000000" d="M1976.0049,-266.2228C1976.0049,-266.2228 1976.0049,-287.7269 1976.0049,-287.7269"/>
<polygon fill="#000000" stroke="#000000" points="1972.505,-287.7269 1976.0049,-297.7269 1979.505,-287.727 1972.505,-287.7269"/>
</g>
<!-- ClientesModule&#45;&gt;AppModule -->
<g id="edge9" class="edge">
<title>ClientesModule&#45;&gt;AppModule</title>
<path fill="none" stroke="#000000" d="M1820.5561,-334.1061C1820.5561,-334.1061 1820.5561,-352.991 1820.5561,-352.991"/>
<polygon fill="#000000" stroke="#000000" points="1817.0562,-352.9909 1820.5561,-362.991 1824.0562,-352.991 1817.0562,-352.9909"/>
</g>
<!-- CompanyModule -->
<g id="node13" class="node">
<title>CompanyModule</title>
<polygon fill="#8dd3c7" stroke="#000000" points="1775.9916,-266 1772.9916,-270 1751.9916,-270 1748.9916,-266 1662.0084,-266 1662.0084,-230 1775.9916,-230 1775.9916,-266"/>
<text text-anchor="middle" x="1719" y="-243.8" font-family="Times,serif" font-size="14.00" fill="#000000">CompanyModule</text>
</g>
<!-- CompanyModule&#45;&gt;AppModule -->
<g id="edge10" class="edge">
<title>CompanyModule&#45;&gt;AppModule</title>
<path fill="none" stroke="#000000" d="M1762.0838,-266.2142C1762.0838,-266.2142 1762.0838,-352.579 1762.0838,-352.579"/>
<polygon fill="#000000" stroke="#000000" points="1758.5839,-352.5789 1762.0838,-362.579 1765.5839,-352.579 1758.5839,-352.5789"/>
</g>
<!-- ContabilidadModule -->
<g id="node14" class="node">
<title>ContabilidadModule</title>
<polygon fill="#8dd3c7" stroke="#000000" points="1925.8781,-266 1922.8781,-270 1901.8781,-270 1898.8781,-266 1794.1219,-266 1794.1219,-230 1925.8781,-230 1925.8781,-266"/>
<text text-anchor="middle" x="1860" y="-243.8" font-family="Times,serif" font-size="14.00" fill="#000000">ContabilidadModule</text>
</g>
<!-- ContabilidadModule&#45;&gt;AppModule -->
<g id="edge11" class="edge">
<title>ContabilidadModule&#45;&gt;AppModule</title>
<path fill="none" stroke="#000000" d="M1801.6725,-266.2142C1801.6725,-266.2142 1801.6725,-352.579 1801.6725,-352.579"/>
<polygon fill="#000000" stroke="#000000" points="1798.1726,-352.5789 1801.6725,-362.579 1805.1726,-352.579 1798.1726,-352.5789"/>
</g>
<!-- DetailClientModule&#45;&gt;AppModule -->
<g id="edge12" class="edge">
<title>DetailClientModule&#45;&gt;AppModule</title>
<path fill="none" stroke="#000000" d="M2008,-334.0225C2008,-351.3734 2008,-375 2008,-375 2008,-375 1841.7747,-375 1841.7747,-375"/>
<polygon fill="#000000" stroke="#000000" points="1841.7747,-371.5001 1831.7747,-375 1841.7746,-378.5001 1841.7747,-371.5001"/>
</g>
<!-- PricesModule -->
<g id="node16" class="node">
<title>PricesModule</title>
<polygon fill="#8dd3c7" stroke="#000000" points="1405.7577,-266 1402.7577,-270 1381.7577,-270 1378.7577,-266 1312.2423,-266 1312.2423,-230 1405.7577,-230 1405.7577,-266"/>
<text text-anchor="middle" x="1359" y="-243.8" font-family="Times,serif" font-size="14.00" fill="#000000">PricesModule</text>
</g>
<!-- PricesModule&#45;&gt;AppModule -->
<g id="edge13" class="edge">
<title>PricesModule&#45;&gt;AppModule</title>
<path fill="none" stroke="#000000" d="M1359,-266.2733C1359,-304.6253 1359,-390 1359,-390 1359,-390 1738.2823,-390 1738.2823,-390"/>
<polygon fill="#000000" stroke="#000000" points="1738.2823,-393.5001 1748.2823,-390 1738.2823,-386.5001 1738.2823,-393.5001"/>
</g>
<!-- ScheduleModule&#45;&gt;AppModule -->
<g id="edge14" class="edge">
<title>ScheduleModule&#45;&gt;AppModule</title>
<path fill="none" stroke="#000000" d="M1479,-266.2142C1479,-302.6396 1479,-381 1479,-381 1479,-381 1738.0572,-381 1738.0572,-381"/>
<polygon fill="#000000" stroke="#000000" points="1738.0572,-384.5001 1748.0572,-381 1738.0571,-377.5001 1738.0572,-384.5001"/>
</g>
<!-- UsersModule -->
<g id="node18" class="node">
<title>UsersModule</title>
<polygon fill="#8dd3c7" stroke="#000000" points="1643.9218,-266 1640.9218,-270 1619.9218,-270 1616.9218,-266 1552.0782,-266 1552.0782,-230 1643.9218,-230 1643.9218,-266"/>
<text text-anchor="middle" x="1598" y="-243.8" font-family="Times,serif" font-size="14.00" fill="#000000">UsersModule</text>
</g>
<!-- UsersModule&#45;&gt;AppModule -->
<g id="edge15" class="edge">
<title>UsersModule&#45;&gt;AppModule</title>
<path fill="none" stroke="#000000" d="M1598,-266.0307C1598,-300.4218 1598,-372 1598,-372 1598,-372 1738.3389,-372 1738.3389,-372"/>
<polygon fill="#000000" stroke="#000000" points="1738.3389,-375.5001 1748.3389,-372 1738.3388,-368.5001 1738.3389,-375.5001"/>
</g>
<!-- ClientesComponent -->
<g id="node20" class="node">
<title>ClientesComponent</title>
<polygon fill="#ffffb3" stroke="#000000" points="1151.7148,-266 1024.2852,-266 1024.2852,-230 1151.7148,-230 1151.7148,-266"/>
<text text-anchor="middle" x="1088" y="-243.8" font-family="Times,serif" font-size="14.00" fill="#000000">ClientesComponent</text>
</g>
<!-- ClientesComponent&#45;&gt;ClientesModule -->
<g id="edge17" class="edge">
<title>ClientesComponent&#45;&gt;ClientesModule</title>
<path fill="none" stroke="#000000" d="M1088,-266.2228C1088,-286.3652 1088,-316 1088,-316 1088,-316 1799.1045,-316 1799.1045,-316"/>
<polygon fill="#000000" stroke="#000000" points="1799.1045,-319.5001 1809.1045,-316 1799.1044,-312.5001 1799.1045,-319.5001"/>
</g>
<!-- InsertClientComponent -->
<g id="node21" class="node">
<title>InsertClientComponent</title>
<polygon fill="#ffffb3" stroke="#000000" points="1006.927,-266 859.073,-266 859.073,-230 1006.927,-230 1006.927,-266"/>
<text text-anchor="middle" x="933" y="-243.8" font-family="Times,serif" font-size="14.00" fill="#000000">InsertClientComponent</text>
</g>
<!-- InsertClientComponent&#45;&gt;ClientesModule -->
<g id="edge18" class="edge">
<title>InsertClientComponent&#45;&gt;ClientesModule</title>
<path fill="none" stroke="#000000" d="M933,-266.2479C933,-289.0179 933,-325 933,-325 933,-325 1799.0542,-325 1799.0542,-325"/>
<polygon fill="#000000" stroke="#000000" points="1799.0542,-328.5001 1809.0542,-325 1799.0541,-321.5001 1799.0542,-328.5001"/>
</g>
<!-- DiarioModule&#45;&gt;ClientesModule -->
<g id="edge20" class="edge">
<title>DiarioModule&#45;&gt;ClientesModule</title>
<path fill="none" stroke="#000000" d="M1239.8855,-266.0225C1239.8855,-283.3734 1239.8855,-307 1239.8855,-307 1239.8855,-307 1799.2272,-307 1799.2272,-307"/>
<polygon fill="#000000" stroke="#000000" points="1799.2273,-310.5001 1809.2272,-307 1799.2272,-303.5001 1799.2273,-310.5001"/>
</g>
<!-- DiarioModule&#45;&gt;DetailClientModule -->
<g id="edge34" class="edge">
<title>DiarioModule&#45;&gt;DetailClientModule</title>
<path fill="none" stroke="#000000" d="M1208.1145,-266.1804C1208.1145,-279.0382 1208.1145,-294 1208.1145,-294 1208.1145,-294 1960.0074,-294 1960.0074,-294 1960.0074,-294 1960.0074,-294.3832 1960.0074,-294.3832"/>
<polygon fill="#000000" stroke="#000000" points="1956.5076,-287.832 1960.0074,-297.8321 1963.5076,-287.8322 1956.5076,-287.832"/>
</g>
<!-- DiarioComponent  -->
<g id="node36" class="node">
<title>DiarioComponent </title>
<polygon fill="#fb8072" stroke="#000000" points="346.0961,-190 225.9039,-190 225.9039,-154 346.0961,-154 346.0961,-190"/>
<text text-anchor="middle" x="286" y="-167.8" font-family="Times,serif" font-size="14.00" fill="#000000">DiarioComponent </text>
</g>
<!-- DiarioModule&#45;&gt;DiarioComponent  -->
<g id="edge38" class="edge">
<title>DiarioModule&#45;&gt;DiarioComponent </title>
<path fill="none" stroke="#000000" stroke-dasharray="5,2" d="M1192.6066,-229.8321C1192.6066,-227.5522 1192.6066,-226 1192.6066,-226 1192.6066,-226 286,-226 286,-226 286,-226 286,-200.2819 286,-200.2819"/>
<polygon fill="#000000" stroke="#000000" points="289.5001,-200.2819 286,-190.2819 282.5001,-200.282 289.5001,-200.2819"/>
</g>
<!-- CompanyComponent -->
<g id="node23" class="node">
<title>CompanyComponent</title>
<polygon fill="#ffffb3" stroke="#000000" points="1663.7744,-190 1528.2256,-190 1528.2256,-154 1663.7744,-154 1663.7744,-190"/>
<text text-anchor="middle" x="1596" y="-167.8" font-family="Times,serif" font-size="14.00" fill="#000000">CompanyComponent</text>
</g>
<!-- CompanyComponent&#45;&gt;CompanyModule -->
<g id="edge21" class="edge">
<title>CompanyComponent&#45;&gt;CompanyModule</title>
<path fill="none" stroke="#000000" d="M1652.8573,-190.0109C1652.8573,-212.4852 1652.8573,-248 1652.8573,-248 1652.8573,-248 1653.7493,-248 1653.7493,-248"/>
<polygon fill="#000000" stroke="#000000" points="1651.7776,-251.5001 1661.7776,-248 1651.7776,-244.5001 1651.7776,-251.5001"/>
</g>
<!-- BalanceComponent -->
<g id="node24" class="node">
<title>BalanceComponent</title>
<polygon fill="#ffffb3" stroke="#000000" points="2002.4187,-190 1875.5813,-190 1875.5813,-154 2002.4187,-154 2002.4187,-190"/>
<text text-anchor="middle" x="1939" y="-167.8" font-family="Times,serif" font-size="14.00" fill="#000000">BalanceComponent</text>
</g>
<!-- BalanceComponent&#45;&gt;ContabilidadModule -->
<g id="edge22" class="edge">
<title>BalanceComponent&#45;&gt;ContabilidadModule</title>
<path fill="none" stroke="#000000" d="M1884.149,-190.0109C1884.149,-190.0109 1884.149,-219.855 1884.149,-219.855"/>
<polygon fill="#000000" stroke="#000000" points="1880.6491,-219.8549 1884.149,-229.855 1887.6491,-219.855 1880.6491,-219.8549"/>
</g>
<!-- ContabilidadComponent -->
<g id="node25" class="node">
<title>ContabilidadComponent</title>
<polygon fill="#ffffb3" stroke="#000000" points="1857.661,-190 1704.339,-190 1704.339,-154 1857.661,-154 1857.661,-190"/>
<text text-anchor="middle" x="1781" y="-167.8" font-family="Times,serif" font-size="14.00" fill="#000000">ContabilidadComponent</text>
</g>
<!-- ContabilidadComponent&#45;&gt;ContabilidadModule -->
<g id="edge23" class="edge">
<title>ContabilidadComponent&#45;&gt;ContabilidadModule</title>
<path fill="none" stroke="#000000" d="M1825.9457,-190.0109C1825.9457,-190.0109 1825.9457,-219.855 1825.9457,-219.855"/>
<polygon fill="#000000" stroke="#000000" points="1822.4457,-219.8549 1825.9457,-229.855 1829.4457,-219.855 1822.4457,-219.8549"/>
</g>
<!-- ExpensesComponent -->
<g id="node26" class="node">
<title>ExpensesComponent</title>
<polygon fill="#ffffb3" stroke="#000000" points="2671.2036,-190 2536.7964,-190 2536.7964,-154 2671.2036,-154 2671.2036,-190"/>
<text text-anchor="middle" x="2604" y="-167.8" font-family="Times,serif" font-size="14.00" fill="#000000">ExpensesComponent</text>
</g>
<!-- ExpensesComponent&#45;&gt;ContabilidadModule -->
<g id="edge24" class="edge">
<title>ExpensesComponent&#45;&gt;ContabilidadModule</title>
<path fill="none" stroke="#000000" d="M2581.6328,-190.32C2581.6328,-198.7883 2581.6328,-207 2581.6328,-207 2581.6328,-207 1917.581,-207 1917.581,-207 1917.581,-207 1917.581,-219.8975 1917.581,-219.8975"/>
<polygon fill="#000000" stroke="#000000" points="1914.0811,-219.8974 1917.581,-229.8975 1921.0811,-219.8975 1914.0811,-219.8974"/>
</g>
<!-- ExpensesModule -->
<g id="node37" class="node">
<title>ExpensesModule</title>
<polygon fill="#8dd3c7" stroke="#000000" points="3883.4216,-266 3880.4216,-270 3859.4216,-270 3856.4216,-266 3770.5784,-266 3770.5784,-230 3883.4216,-230 3883.4216,-266"/>
<text text-anchor="middle" x="3827" y="-243.8" font-family="Times,serif" font-size="14.00" fill="#000000">ExpensesModule</text>
</g>
<!-- ExpensesComponent&#45;&gt;ExpensesModule -->
<g id="edge39" class="edge">
<title>ExpensesComponent&#45;&gt;ExpensesModule</title>
<path fill="none" stroke="#000000" d="M2626.3672,-190.1686C2626.3672,-194.0459 2626.3672,-197 2626.3672,-197 2626.3672,-197 3845.7368,-197 3845.7368,-197 3845.7368,-197 3845.7368,-219.8757 3845.7368,-219.8757"/>
<polygon fill="#000000" stroke="#000000" points="3842.2369,-219.8757 3845.7368,-229.8757 3849.2369,-219.8757 3842.2369,-219.8757"/>
</g>
<!-- IncomesComponent -->
<g id="node27" class="node">
<title>IncomesComponent</title>
<polygon fill="#ffffb3" stroke="#000000" points="2149.2576,-190 2020.7424,-190 2020.7424,-154 2149.2576,-154 2149.2576,-190"/>
<text text-anchor="middle" x="2085" y="-167.8" font-family="Times,serif" font-size="14.00" fill="#000000">IncomesComponent</text>
</g>
<!-- IncomesComponent&#45;&gt;ContabilidadModule -->
<g id="edge25" class="edge">
<title>IncomesComponent&#45;&gt;ContabilidadModule</title>
<path fill="none" stroke="#000000" d="M2046.5042,-190.2015C2046.5042,-196.028 2046.5042,-201 2046.5042,-201 2046.5042,-201 1892.507,-201 1892.507,-201 1892.507,-201 1892.507,-219.963 1892.507,-219.963"/>
<polygon fill="#000000" stroke="#000000" points="1889.0071,-219.963 1892.507,-229.963 1896.0071,-219.963 1889.0071,-219.963"/>
</g>
<!-- InsertExpenseComponent -->
<g id="node28" class="node">
<title>InsertExpenseComponent</title>
<polygon fill="#ffffb3" stroke="#000000" points="2519.1302,-190 2358.8698,-190 2358.8698,-154 2519.1302,-154 2519.1302,-190"/>
<text text-anchor="middle" x="2439" y="-167.8" font-family="Times,serif" font-size="14.00" fill="#000000">InsertExpenseComponent</text>
</g>
<!-- InsertExpenseComponent&#45;&gt;ContabilidadModule -->
<g id="edge26" class="edge">
<title>InsertExpenseComponent&#45;&gt;ContabilidadModule</title>
<path fill="none" stroke="#000000" d="M2435,-190.0449C2435,-197.749 2435,-205 2435,-205 2435,-205 1909.223,-205 1909.223,-205 1909.223,-205 1909.223,-219.5146 1909.223,-219.5146"/>
<polygon fill="#000000" stroke="#000000" points="1905.7231,-219.5145 1909.223,-229.5146 1912.7231,-219.5146 1905.7231,-219.5145"/>
</g>
<!-- InsertExpenseComponent&#45;&gt;ExpensesModule -->
<g id="edge40" class="edge">
<title>InsertExpenseComponent&#45;&gt;ExpensesModule</title>
<path fill="none" stroke="#000000" d="M2514.7914,-190.1592C2514.7914,-195.0433 2514.7914,-199 2514.7914,-199 2514.7914,-199 3808.2632,-199 3808.2632,-199 3808.2632,-199 3808.2632,-219.7542 3808.2632,-219.7542"/>
<polygon fill="#000000" stroke="#000000" points="3804.7633,-219.7542 3808.2632,-229.7542 3811.7633,-219.7542 3804.7633,-219.7542"/>
</g>
<!-- ResumeIncomesComponent -->
<g id="node29" class="node">
<title>ResumeIncomesComponent</title>
<polygon fill="#ffffb3" stroke="#000000" points="2340.8585,-190 2167.1415,-190 2167.1415,-154 2340.8585,-154 2340.8585,-190"/>
<text text-anchor="middle" x="2254" y="-167.8" font-family="Times,serif" font-size="14.00" fill="#000000">ResumeIncomesComponent</text>
</g>
<!-- ResumeIncomesComponent&#45;&gt;ContabilidadModule -->
<g id="edge27" class="edge">
<title>ResumeIncomesComponent&#45;&gt;ContabilidadModule</title>
<path fill="none" stroke="#000000" d="M2192.4713,-190.0328C2192.4713,-196.8526 2192.4713,-203 2192.4713,-203 2192.4713,-203 1900.865,-203 1900.865,-203 1900.865,-203 1900.865,-219.9561 1900.865,-219.9561"/>
<polygon fill="#000000" stroke="#000000" points="1897.3651,-219.956 1900.865,-229.9561 1904.3651,-219.9561 1897.3651,-219.956"/>
</g>
<!-- AddAttendanceComponent -->
<g id="node30" class="node">
<title>AddAttendanceComponent</title>
<polygon fill="#ffffb3" stroke="#000000" points="3106.6853,-266 2937.3147,-266 2937.3147,-230 3106.6853,-230 3106.6853,-266"/>
<text text-anchor="middle" x="3022" y="-243.8" font-family="Times,serif" font-size="14.00" fill="#000000">AddAttendanceComponent</text>
</g>
<!-- AddAttendanceComponent&#45;&gt;DetailClientModule -->
<g id="edge28" class="edge">
<title>AddAttendanceComponent&#45;&gt;DetailClientModule</title>
<path fill="none" stroke="#000000" d="M3022,-266.1223C3022,-268.9729 3022,-271 3022,-271 3022,-271 1992.0025,-271 1992.0025,-271 1992.0025,-271 1992.0025,-287.9561 1992.0025,-287.9561"/>
<polygon fill="#000000" stroke="#000000" points="1988.5025,-287.956 1992.0025,-297.9561 1995.5025,-287.9561 1988.5025,-287.956"/>
</g>
<!-- AddPayComponent -->
<g id="node31" class="node">
<title>AddPayComponent</title>
<polygon fill="#ffffb3" stroke="#000000" points="3739.437,-266 3612.563,-266 3612.563,-230 3739.437,-230 3739.437,-266"/>
<text text-anchor="middle" x="3676" y="-243.8" font-family="Times,serif" font-size="14.00" fill="#000000">AddPayComponent</text>
</g>
<!-- AddPayComponent&#45;&gt;DetailClientModule -->
<g id="edge29" class="edge">
<title>AddPayComponent&#45;&gt;DetailClientModule</title>
<path fill="none" stroke="#000000" d="M3676,-266.1025C3676,-277.0859 3676,-289 3676,-289 3676,-289 2055.9927,-289 2055.9927,-289 2055.9927,-289 2055.9927,-289.8841 2055.9927,-289.8841"/>
<polygon fill="#000000" stroke="#000000" points="2052.4928,-287.8408 2055.9927,-297.8408 2059.4928,-287.8409 2052.4928,-287.8408"/>
</g>
<!-- DetailClientComponent -->
<g id="node32" class="node">
<title>DetailClientComponent</title>
<polygon fill="#ffffb3" stroke="#000000" points="3594.7632,-266 3445.2368,-266 3445.2368,-230 3594.7632,-230 3594.7632,-266"/>
<text text-anchor="middle" x="3520" y="-243.8" font-family="Times,serif" font-size="14.00" fill="#000000">DetailClientComponent</text>
</g>
<!-- DetailClientComponent&#45;&gt;DetailClientModule -->
<g id="edge30" class="edge">
<title>DetailClientComponent&#45;&gt;DetailClientModule</title>
<path fill="none" stroke="#000000" d="M3520,-266.0664C3520,-275.4587 3520,-285 3520,-285 3520,-285 2039.9951,-285 2039.9951,-285 2039.9951,-285 2039.9951,-287.9672 2039.9951,-287.9672"/>
<polygon fill="#000000" stroke="#000000" points="2036.4952,-287.9671 2039.9951,-297.9672 2043.4952,-287.9672 2036.4952,-287.9671"/>
</g>
<!-- InvoicesComponent -->
<g id="node33" class="node">
<title>InvoicesComponent</title>
<polygon fill="#ffffb3" stroke="#000000" points="3427.2576,-266 3298.7424,-266 3298.7424,-230 3427.2576,-230 3427.2576,-266"/>
<text text-anchor="middle" x="3363" y="-243.8" font-family="Times,serif" font-size="14.00" fill="#000000">InvoicesComponent</text>
</g>
<!-- InvoicesComponent&#45;&gt;DetailClientModule -->
<g id="edge31" class="edge">
<title>InvoicesComponent&#45;&gt;DetailClientModule</title>
<path fill="none" stroke="#000000" d="M3363,-266.2434C3363,-273.4297 3363,-280 3363,-280 3363,-280 2023.9976,-280 2023.9976,-280 2023.9976,-280 2023.9976,-287.5782 2023.9976,-287.5782"/>
<polygon fill="#000000" stroke="#000000" points="2020.4976,-287.5781 2023.9976,-297.5782 2027.4976,-287.5782 2020.4976,-287.5781"/>
</g>
<!-- UpdateClientComponent -->
<g id="node34" class="node">
<title>UpdateClientComponent</title>
<polygon fill="#ffffb3" stroke="#000000" points="3280.9818,-266 3125.0182,-266 3125.0182,-230 3280.9818,-230 3280.9818,-266"/>
<text text-anchor="middle" x="3203" y="-243.8" font-family="Times,serif" font-size="14.00" fill="#000000">UpdateClientComponent</text>
</g>
<!-- UpdateClientComponent&#45;&gt;DetailClientModule -->
<g id="edge32" class="edge">
<title>UpdateClientComponent&#45;&gt;DetailClientModule</title>
<path fill="none" stroke="#000000" d="M3203,-266.207C3203,-271.5549 3203,-276 3203,-276 3203,-276 2008,-276 2008,-276 2008,-276 2008,-287.8726 2008,-287.8726"/>
<polygon fill="#000000" stroke="#000000" points="2004.5001,-287.8725 2008,-297.8726 2011.5001,-287.8726 2004.5001,-287.8725"/>
</g>
<!-- DiarioComponent -->
<g id="node35" class="node">
<title>DiarioComponent</title>
<polygon fill="#ffffb3" stroke="#000000" points="487.5954,-190 370.4046,-190 370.4046,-154 487.5954,-154 487.5954,-190"/>
<text text-anchor="middle" x="429" y="-167.8" font-family="Times,serif" font-size="14.00" fill="#000000">DiarioComponent</text>
</g>
<!-- DiarioComponent&#45;&gt;DiarioModule -->
<g id="edge35" class="edge">
<title>DiarioComponent&#45;&gt;DiarioModule</title>
<path fill="none" stroke="#000000" d="M429,-190.1871C429,-205.1824 429,-224 429,-224 429,-224 1197.141,-224 1197.141,-224 1197.141,-224 1197.141,-224.581 1197.141,-224.581"/>
<polygon fill="#000000" stroke="#000000" points="1193.6411,-219.8097 1197.141,-229.8097 1200.6411,-219.8098 1193.6411,-219.8097"/>
</g>
<!-- PricesComponent -->
<g id="node38" class="node">
<title>PricesComponent</title>
<polygon fill="#ffffb3" stroke="#000000" points="643.5409,-190 528.4591,-190 528.4591,-154 643.5409,-154 643.5409,-190"/>
<text text-anchor="middle" x="586" y="-167.8" font-family="Times,serif" font-size="14.00" fill="#000000">PricesComponent</text>
</g>
<!-- PricesComponent&#45;&gt;PricesModule -->
<g id="edge41" class="edge">
<title>PricesComponent&#45;&gt;PricesModule</title>
<path fill="none" stroke="#000000" d="M586,-190.0511C586,-204.373 586,-222 586,-222 586,-222 1319.5224,-222 1319.5224,-222 1319.5224,-222 1319.5224,-222.7942 1319.5224,-222.7942"/>
<polygon fill="#000000" stroke="#000000" points="1316.0226,-219.9421 1319.5224,-229.9421 1323.0226,-219.9422 1316.0226,-219.9421"/>
</g>
<!-- AddActivityComponent -->
<g id="node39" class="node">
<title>AddActivityComponent</title>
<polygon fill="#ffffb3" stroke="#000000" points="992.8229,-190 841.1771,-190 841.1771,-154 992.8229,-154 992.8229,-190"/>
<text text-anchor="middle" x="917" y="-167.8" font-family="Times,serif" font-size="14.00" fill="#000000">AddActivityComponent</text>
</g>
<!-- AddActivityComponent&#45;&gt;ScheduleModule -->
<g id="edge42" class="edge">
<title>AddActivityComponent&#45;&gt;ScheduleModule</title>
<path fill="none" stroke="#000000" d="M925.9741,-190.1505C925.9741,-202.2708 925.9741,-216 925.9741,-216 925.9741,-216 1451.0102,-216 1451.0102,-216 1451.0102,-216 1451.0102,-219.7566 1451.0102,-219.7566"/>
<polygon fill="#000000" stroke="#000000" points="1447.5103,-219.7566 1451.0102,-229.7566 1454.5103,-219.7566 1447.5103,-219.7566"/>
</g>
<!-- DefaultersComponent -->
<g id="node40" class="node">
<title>DefaultersComponent</title>
<polygon fill="#ffffb3" stroke="#000000" points="823.6303,-190 684.3697,-190 684.3697,-154 823.6303,-154 823.6303,-190"/>
<text text-anchor="middle" x="754" y="-167.8" font-family="Times,serif" font-size="14.00" fill="#000000">DefaultersComponent</text>
</g>
<!-- DefaultersComponent&#45;&gt;ScheduleModule -->
<g id="edge43" class="edge">
<title>DefaultersComponent&#45;&gt;ScheduleModule</title>
<path fill="none" stroke="#000000" d="M754,-190.1804C754,-203.0382 754,-218 754,-218 754,-218 1441.8623,-218 1441.8623,-218 1441.8623,-218 1441.8623,-219.8568 1441.8623,-219.8568"/>
<polygon fill="#000000" stroke="#000000" points="1438.3624,-219.8568 1441.8623,-229.8568 1445.3624,-219.8568 1438.3624,-219.8568"/>
</g>
<!-- ScheduleComponent -->
<g id="node41" class="node">
<title>ScheduleComponent</title>
<polygon fill="#ffffb3" stroke="#000000" points="1334.1499,-190 1201.8501,-190 1201.8501,-154 1334.1499,-154 1334.1499,-190"/>
<text text-anchor="middle" x="1268" y="-167.8" font-family="Times,serif" font-size="14.00" fill="#000000">ScheduleComponent</text>
</g>
<!-- ScheduleComponent&#45;&gt;ScheduleModule -->
<g id="edge44" class="edge">
<title>ScheduleComponent&#45;&gt;ScheduleModule</title>
<path fill="none" stroke="#000000" d="M1326.9236,-190.1274C1326.9236,-200.7109 1326.9236,-212 1326.9236,-212 1326.9236,-212 1469.306,-212 1469.306,-212 1469.306,-212 1469.306,-219.5782 1469.306,-219.5782"/>
<polygon fill="#000000" stroke="#000000" points="1465.8061,-219.5781 1469.306,-229.5782 1472.8061,-219.5782 1465.8061,-219.5781"/>
</g>
<!-- UpdateScheduleComponent -->
<g id="node42" class="node">
<title>UpdateScheduleComponent</title>
<polygon fill="#ffffb3" stroke="#000000" points="1183.5758,-190 1010.4242,-190 1010.4242,-154 1183.5758,-154 1183.5758,-190"/>
<text text-anchor="middle" x="1097" y="-167.8" font-family="Times,serif" font-size="14.00" fill="#000000">UpdateScheduleComponent</text>
</g>
<!-- UpdateScheduleComponent&#45;&gt;ScheduleModule -->
<g id="edge45" class="edge">
<title>UpdateScheduleComponent&#45;&gt;ScheduleModule</title>
<path fill="none" stroke="#000000" d="M1179.9408,-190.0555C1179.9408,-201.439 1179.9408,-214 1179.9408,-214 1179.9408,-214 1460.1581,-214 1460.1581,-214 1460.1581,-214 1460.1581,-219.8056 1460.1581,-219.8056"/>
<polygon fill="#000000" stroke="#000000" points="1456.6582,-219.8055 1460.1581,-229.8056 1463.6582,-219.8056 1456.6582,-219.8055"/>
</g>
<!-- UsersComponent -->
<g id="node43" class="node">
<title>UsersComponent</title>
<polygon fill="#ffffb3" stroke="#000000" points="1487.7036,-190 1374.2964,-190 1374.2964,-154 1487.7036,-154 1487.7036,-190"/>
<text text-anchor="middle" x="1431" y="-167.8" font-family="Times,serif" font-size="14.00" fill="#000000">UsersComponent</text>
</g>
<!-- UsersComponent&#45;&gt;UsersModule -->
<g id="edge48" class="edge">
<title>UsersComponent&#45;&gt;UsersModule</title>
<path fill="none" stroke="#000000" d="M1478.4538,-190.0664C1478.4538,-199.4587 1478.4538,-209 1478.4538,-209 1478.4538,-209 1598,-209 1598,-209 1598,-209 1598,-219.8701 1598,-219.8701"/>
<polygon fill="#000000" stroke="#000000" points="1594.5001,-219.8701 1598,-229.8701 1601.5001,-219.8701 1594.5001,-219.8701"/>
</g>
</g>
</svg>
