<?xml version="1.0" encoding="UTF-8" standalone="no"?>
<!DOCTYPE svg PUBLIC "-//W3C//DTD SVG 1.1//EN"
 "http://www.w3.org/Graphics/SVG/1.1/DTD/svg11.dtd">
<!-- Generated by graphviz version 2.40.1 (20161225.0304)
 -->
<!-- Title: dependencies Pages: 1 -->
<svg width="1524pt" height="284pt"
 viewBox="0.00 0.00 1524.00 284.00" xmlns="http://www.w3.org/2000/svg" xmlns:xlink="http://www.w3.org/1999/xlink">
<g id="graph0" class="graph" transform="scale(1 1) rotate(0) translate(4 280)">
<title>dependencies</title>
<polygon fill="#ffffff" stroke="transparent" points="-4,4 -4,-280 1520,-280 1520,4 -4,4"/>
<text text-anchor="start" x="737.0091" y="-42.4" font-family="sans-serif" font-weight="bold" font-size="14.00" fill="#000000">Legend</text>
<polygon fill="#ffffb3" stroke="transparent" points="524,-10 524,-30 544,-30 544,-10 524,-10"/>
<text text-anchor="start" x="547.629" y="-15.4" font-family="sans-serif" font-size="14.00" fill="#000000"> &#160;Declarations</text>
<polygon fill="#8dd3c7" stroke="transparent" points="637,-10 637,-30 657,-30 657,-10 637,-10"/>
<text text-anchor="start" x="660.7251" y="-15.4" font-family="sans-serif" font-size="14.00" fill="#000000"> &#160;Module</text>
<polygon fill="#80b1d3" stroke="transparent" points="723,-10 723,-30 743,-30 743,-10 723,-10"/>
<text text-anchor="start" x="746.7812" y="-15.4" font-family="sans-serif" font-size="14.00" fill="#000000"> &#160;Bootstrap</text>
<polygon fill="#fdb462" stroke="transparent" points="820,-10 820,-30 840,-30 840,-10 820,-10"/>
<text text-anchor="start" x="843.6732" y="-15.4" font-family="sans-serif" font-size="14.00" fill="#000000"> &#160;Providers</text>
<polygon fill="#fb8072" stroke="transparent" points="916,-10 916,-30 936,-30 936,-10 916,-10"/>
<text text-anchor="start" x="939.7258" y="-15.4" font-family="sans-serif" font-size="14.00" fill="#000000"> &#160;Exports</text>
<g id="clust1" class="cluster">
<title>cluster_AppModule</title>
<polygon fill="none" stroke="#000000" stroke-dasharray="1,5" points="8,-70 8,-268 1508,-268 1508,-70 8,-70"/>
</g>
<g id="clust2" class="cluster">
<title>cluster_AppModule_declarations</title>
<polygon fill="none" stroke="#000000" points="1070,-78 1070,-130 1500,-130 1500,-78 1070,-78"/>
</g>
<g id="clust6" class="cluster">
<title>cluster_AppModule_imports</title>
<polygon fill="none" stroke="#000000" points="16,-78 16,-130 1062,-130 1062,-78 16,-78"/>
</g>
<g id="clust8" class="cluster">
<title>cluster_AppModule_bootstrap</title>
<polygon fill="none" stroke="#000000" points="665,-208 665,-260 789,-260 789,-208 665,-208"/>
</g>
<!-- AppComponent -->
<g id="node1" class="node">
<title>AppComponent</title>
<polygon fill="#ffffb3" stroke="#000000" points="1491.9399,-122 1386.0601,-122 1386.0601,-86 1491.9399,-86 1491.9399,-122"/>
<text text-anchor="middle" x="1439" y="-99.8" font-family="Times,serif" font-size="14.00" fill="#000000">AppComponent</text>
</g>
<!-- AppModule -->
<g id="node4" class="node">
<title>AppModule</title>
<polygon fill="#8dd3c7" stroke="#000000" points="768.6571,-187 765.6571,-191 744.6571,-191 741.6571,-187 685.3429,-187 685.3429,-151 768.6571,-151 768.6571,-187"/>
<text text-anchor="middle" x="727" y="-164.8" font-family="Times,serif" font-size="14.00" fill="#000000">AppModule</text>
</g>
<!-- AppComponent&#45;&gt;AppModule -->
<g id="edge1" class="edge">
<title>AppComponent&#45;&gt;AppModule</title>
<path fill="none" stroke="#000000" d="M1439,-122.2479C1439,-145.0179 1439,-181 1439,-181 1439,-181 778.8807,-181 778.8807,-181"/>
<polygon fill="#000000" stroke="#000000" points="778.8807,-177.5001 768.8807,-181 778.8807,-184.5001 778.8807,-177.5001"/>
</g>
<!-- HeaderComponent -->
<g id="node2" class="node">
<title>HeaderComponent</title>
<polygon fill="#ffffb3" stroke="#000000" points="1367.7437,-122 1246.2563,-122 1246.2563,-86 1367.7437,-86 1367.7437,-122"/>
<text text-anchor="middle" x="1307" y="-99.8" font-family="Times,serif" font-size="14.00" fill="#000000">HeaderComponent</text>
</g>
<!-- HeaderComponent&#45;&gt;AppModule -->
<g id="edge2" class="edge">
<title>HeaderComponent&#45;&gt;AppModule</title>
<path fill="none" stroke="#000000" d="M1307,-122.2843C1307,-143.3211 1307,-175 1307,-175 1307,-175 778.7122,-175 778.7122,-175"/>
<polygon fill="#000000" stroke="#000000" points="778.7122,-171.5001 768.7122,-175 778.7121,-178.5001 778.7122,-171.5001"/>
</g>
<!-- InvoicesListComponent -->
<g id="node3" class="node">
<title>InvoicesListComponent</title>
<polygon fill="#ffffb3" stroke="#000000" points="1228.0365,-122 1077.9635,-122 1077.9635,-86 1228.0365,-86 1228.0365,-122"/>
<text text-anchor="middle" x="1153" y="-99.8" font-family="Times,serif" font-size="14.00" fill="#000000">InvoicesListComponent</text>
</g>
<!-- InvoicesListComponent&#45;&gt;AppModule -->
<g id="edge3" class="edge">
<title>InvoicesListComponent&#45;&gt;AppModule</title>
<path fill="none" stroke="#000000" d="M1153,-122.1061C1153,-141.3391 1153,-169 1153,-169 1153,-169 779.0124,-169 779.0124,-169"/>
<polygon fill="#000000" stroke="#000000" points="779.0124,-165.5001 769.0124,-169 779.0123,-172.5001 779.0124,-165.5001"/>
</g>
<!-- AppComponent  -->
<g id="node13" class="node">
<title>AppComponent </title>
<polygon fill="#80b1d3" stroke="#000000" points="781.439,-252 672.561,-252 672.561,-216 781.439,-216 781.439,-252"/>
<text text-anchor="middle" x="727" y="-229.8" font-family="Times,serif" font-size="14.00" fill="#000000">AppComponent </text>
</g>
<!-- AppModule&#45;&gt;AppComponent  -->
<g id="edge12" class="edge">
<title>AppModule&#45;&gt;AppComponent </title>
<path fill="none" stroke="#000000" stroke-dasharray="1,5" d="M727,-187.1061C727,-187.1061 727,-205.991 727,-205.991"/>
<polygon fill="#000000" stroke="#000000" points="723.5001,-205.9909 727,-215.991 730.5001,-205.991 723.5001,-205.9909"/>
</g>
<!-- AppRoutingModule -->
<g id="node5" class="node">
<title>AppRoutingModule</title>
<polygon fill="#8dd3c7" stroke="#000000" points="1054.2744,-122 1051.2744,-126 1030.2744,-126 1027.2744,-122 925.7256,-122 925.7256,-86 1054.2744,-86 1054.2744,-122"/>
<text text-anchor="middle" x="990" y="-99.8" font-family="Times,serif" font-size="14.00" fill="#000000">AppRoutingModule</text>
</g>
<!-- AppRoutingModule&#45;&gt;AppModule -->
<g id="edge4" class="edge">
<title>AppRoutingModule&#45;&gt;AppModule</title>
<path fill="none" stroke="#000000" d="M990,-122.0225C990,-139.3734 990,-163 990,-163 990,-163 778.6731,-163 778.6731,-163"/>
<polygon fill="#000000" stroke="#000000" points="778.6732,-159.5001 768.6731,-163 778.6731,-166.5001 778.6732,-159.5001"/>
</g>
<!-- ClientesModule -->
<g id="node6" class="node">
<title>ClientesModule</title>
<polygon fill="#8dd3c7" stroke="#000000" points="907.9329,-122 904.9329,-126 883.9329,-126 880.9329,-122 802.0671,-122 802.0671,-86 907.9329,-86 907.9329,-122"/>
<text text-anchor="middle" x="855" y="-99.8" font-family="Times,serif" font-size="14.00" fill="#000000">ClientesModule</text>
</g>
<!-- ClientesModule&#45;&gt;AppModule -->
<g id="edge5" class="edge">
<title>ClientesModule&#45;&gt;AppModule</title>
<path fill="none" stroke="#000000" d="M855,-122.2396C855,-137.5706 855,-157 855,-157 855,-157 778.912,-157 778.912,-157"/>
<polygon fill="#000000" stroke="#000000" points="778.912,-153.5001 768.912,-157 778.912,-160.5001 778.912,-153.5001"/>
</g>
<!-- CompanyModule -->
<g id="node7" class="node">
<title>CompanyModule</title>
<polygon fill="#8dd3c7" stroke="#000000" points="783.9916,-122 780.9916,-126 759.9916,-126 756.9916,-122 670.0084,-122 670.0084,-86 783.9916,-86 783.9916,-122"/>
<text text-anchor="middle" x="727" y="-99.8" font-family="Times,serif" font-size="14.00" fill="#000000">CompanyModule</text>
</g>
<!-- CompanyModule&#45;&gt;AppModule -->
<g id="edge6" class="edge">
<title>CompanyModule&#45;&gt;AppModule</title>
<path fill="none" stroke="#000000" d="M727,-122.1061C727,-122.1061 727,-140.991 727,-140.991"/>
<polygon fill="#000000" stroke="#000000" points="723.5001,-140.9909 727,-150.991 730.5001,-140.991 723.5001,-140.9909"/>
</g>
<!-- ContabilidadModule -->
<g id="node8" class="node">
<title>ContabilidadModule</title>
<polygon fill="#8dd3c7" stroke="#000000" points="651.8781,-122 648.8781,-126 627.8781,-126 624.8781,-122 520.1219,-122 520.1219,-86 651.8781,-86 651.8781,-122"/>
<text text-anchor="middle" x="586" y="-99.8" font-family="Times,serif" font-size="14.00" fill="#000000">ContabilidadModule</text>
</g>
<!-- ContabilidadModule&#45;&gt;AppModule -->
<g id="edge7" class="edge">
<title>ContabilidadModule&#45;&gt;AppModule</title>
<path fill="none" stroke="#000000" d="M586,-122.2396C586,-137.5706 586,-157 586,-157 586,-157 675.0771,-157 675.0771,-157"/>
<polygon fill="#000000" stroke="#000000" points="675.0771,-160.5001 685.0771,-157 675.0771,-153.5001 675.0771,-160.5001"/>
</g>
<!-- DetailClientModule -->
<g id="node9" class="node">
<title>DetailClientModule</title>
<polygon fill="#8dd3c7" stroke="#000000" points="501.9804,-122 498.9804,-126 477.9804,-126 474.9804,-122 374.0196,-122 374.0196,-86 501.9804,-86 501.9804,-122"/>
<text text-anchor="middle" x="438" y="-99.8" font-family="Times,serif" font-size="14.00" fill="#000000">DetailClientModule</text>
</g>
<!-- DetailClientModule&#45;&gt;AppModule -->
<g id="edge8" class="edge">
<title>DetailClientModule&#45;&gt;AppModule</title>
<path fill="none" stroke="#000000" d="M438,-122.0225C438,-139.3734 438,-163 438,-163 438,-163 675.2856,-163 675.2856,-163"/>
<polygon fill="#000000" stroke="#000000" points="675.2856,-166.5001 685.2856,-163 675.2855,-159.5001 675.2856,-166.5001"/>
</g>
<!-- PricesModule -->
<g id="node10" class="node">
<title>PricesModule</title>
<polygon fill="#8dd3c7" stroke="#000000" points="355.7577,-122 352.7577,-126 331.7577,-126 328.7577,-122 262.2423,-122 262.2423,-86 355.7577,-86 355.7577,-122"/>
<text text-anchor="middle" x="309" y="-99.8" font-family="Times,serif" font-size="14.00" fill="#000000">PricesModule</text>
</g>
<!-- PricesModule&#45;&gt;AppModule -->
<g id="edge9" class="edge">
<title>PricesModule&#45;&gt;AppModule</title>
<path fill="none" stroke="#000000" d="M309,-122.1061C309,-141.3391 309,-169 309,-169 309,-169 675.0067,-169 675.0067,-169"/>
<polygon fill="#000000" stroke="#000000" points="675.0068,-172.5001 685.0067,-169 675.0067,-165.5001 675.0068,-172.5001"/>
</g>
<!-- ScheduleModule -->
<g id="node11" class="node">
<title>ScheduleModule</title>
<polygon fill="#8dd3c7" stroke="#000000" points="244.3669,-122 241.3669,-126 220.3669,-126 217.3669,-122 133.6331,-122 133.6331,-86 244.3669,-86 244.3669,-122"/>
<text text-anchor="middle" x="189" y="-99.8" font-family="Times,serif" font-size="14.00" fill="#000000">ScheduleModule</text>
</g>
<!-- ScheduleModule&#45;&gt;AppModule -->
<g id="edge10" class="edge">
<title>ScheduleModule&#45;&gt;AppModule</title>
<path fill="none" stroke="#000000" d="M189,-122.2843C189,-143.3211 189,-175 189,-175 189,-175 675.2317,-175 675.2317,-175"/>
<polygon fill="#000000" stroke="#000000" points="675.2318,-178.5001 685.2317,-175 675.2317,-171.5001 675.2318,-178.5001"/>
</g>
<!-- UsersModule -->
<g id="node12" class="node">
<title>UsersModule</title>
<polygon fill="#8dd3c7" stroke="#000000" points="115.9218,-122 112.9218,-126 91.9218,-126 88.9218,-122 24.0782,-122 24.0782,-86 115.9218,-86 115.9218,-122"/>
<text text-anchor="middle" x="70" y="-99.8" font-family="Times,serif" font-size="14.00" fill="#000000">UsersModule</text>
</g>
<!-- UsersModule&#45;&gt;AppModule -->
<g id="edge11" class="edge">
<title>UsersModule&#45;&gt;AppModule</title>
<path fill="none" stroke="#000000" d="M70,-122.2479C70,-145.0179 70,-181 70,-181 70,-181 675.1531,-181 675.1531,-181"/>
<polygon fill="#000000" stroke="#000000" points="675.1531,-184.5001 685.1531,-181 675.1531,-177.5001 675.1531,-184.5001"/>
</g>
</g>
</svg>
