<?xml version="1.0" encoding="UTF-8" standalone="no"?>
<!DOCTYPE svg PUBLIC "-//W3C//DTD SVG 1.1//EN"
 "http://www.w3.org/Graphics/SVG/1.1/DTD/svg11.dtd">
<!-- Generated by graphviz version 2.40.1 (20161225.0304)
 -->
<!-- Title: dependencies Pages: 1 -->
<svg width="1046pt" height="211pt"
 viewBox="0.00 0.00 1046.00 211.00" xmlns="http://www.w3.org/2000/svg" xmlns:xlink="http://www.w3.org/1999/xlink">
<g id="graph0" class="graph" transform="scale(1 1) rotate(0) translate(4 207)">
<title>dependencies</title>
<polygon fill="#ffffff" stroke="transparent" points="-4,4 -4,-207 1042,-207 1042,4 -4,4"/>
<text text-anchor="start" x="498.0091" y="-42.4" font-family="sans-serif" font-weight="bold" font-size="14.00" fill="#000000">Legend</text>
<polygon fill="#ffffb3" stroke="transparent" points="285,-10 285,-30 305,-30 305,-10 285,-10"/>
<text text-anchor="start" x="308.629" y="-15.4" font-family="sans-serif" font-size="14.00" fill="#000000"> &#160;Declarations</text>
<polygon fill="#8dd3c7" stroke="transparent" points="398,-10 398,-30 418,-30 418,-10 398,-10"/>
<text text-anchor="start" x="421.7251" y="-15.4" font-family="sans-serif" font-size="14.00" fill="#000000"> &#160;Module</text>
<polygon fill="#80b1d3" stroke="transparent" points="484,-10 484,-30 504,-30 504,-10 484,-10"/>
<text text-anchor="start" x="507.7812" y="-15.4" font-family="sans-serif" font-size="14.00" fill="#000000"> &#160;Bootstrap</text>
<polygon fill="#fdb462" stroke="transparent" points="581,-10 581,-30 601,-30 601,-10 581,-10"/>
<text text-anchor="start" x="604.6732" y="-15.4" font-family="sans-serif" font-size="14.00" fill="#000000"> &#160;Providers</text>
<polygon fill="#fb8072" stroke="transparent" points="677,-10 677,-30 697,-30 697,-10 677,-10"/>
<text text-anchor="start" x="700.7258" y="-15.4" font-family="sans-serif" font-size="14.00" fill="#000000"> &#160;Exports</text>
<g id="clust1" class="cluster">
<title>cluster_ScheduleModule</title>
<polygon fill="none" stroke="#000000" stroke-dasharray="1,5" points="8,-70 8,-195 1030,-195 1030,-70 8,-70"/>
</g>
<g id="clust2" class="cluster">
<title>cluster_ScheduleModule_declarations</title>
<polygon fill="none" stroke="#000000" points="355,-78 355,-130 1022,-130 1022,-78 355,-78"/>
</g>
<g id="clust7" class="cluster">
<title>cluster_ScheduleModule_imports</title>
<polygon fill="none" stroke="#000000" points="16,-78 16,-130 347,-130 347,-78 16,-78"/>
</g>
<!-- AddActivityComponent -->
<g id="node1" class="node">
<title>AddActivityComponent</title>
<polygon fill="#ffffb3" stroke="#000000" points="1013.8229,-122 862.1771,-122 862.1771,-86 1013.8229,-86 1013.8229,-122"/>
<text text-anchor="middle" x="938" y="-99.8" font-family="Times,serif" font-size="14.00" fill="#000000">AddActivityComponent</text>
</g>
<!-- ScheduleModule -->
<g id="node5" class="node">
<title>ScheduleModule</title>
<polygon fill="#8dd3c7" stroke="#000000" points="590.3669,-187 587.3669,-191 566.3669,-191 563.3669,-187 479.6331,-187 479.6331,-151 590.3669,-151 590.3669,-187"/>
<text text-anchor="middle" x="535" y="-164.8" font-family="Times,serif" font-size="14.00" fill="#000000">ScheduleModule</text>
</g>
<!-- AddActivityComponent&#45;&gt;ScheduleModule -->
<g id="edge1" class="edge">
<title>AddActivityComponent&#45;&gt;ScheduleModule</title>
<path fill="none" stroke="#000000" d="M938,-122.2843C938,-143.3211 938,-175 938,-175 938,-175 600.6123,-175 600.6123,-175"/>
<polygon fill="#000000" stroke="#000000" points="600.6123,-171.5001 590.6123,-175 600.6123,-178.5001 600.6123,-171.5001"/>
</g>
<!-- DefaultersComponent -->
<g id="node2" class="node">
<title>DefaultersComponent</title>
<polygon fill="#ffffb3" stroke="#000000" points="844.6303,-122 705.3697,-122 705.3697,-86 844.6303,-86 844.6303,-122"/>
<text text-anchor="middle" x="775" y="-99.8" font-family="Times,serif" font-size="14.00" fill="#000000">DefaultersComponent</text>
</g>
<!-- DefaultersComponent&#45;&gt;ScheduleModule -->
<g id="edge2" class="edge">
<title>DefaultersComponent&#45;&gt;ScheduleModule</title>
<path fill="none" stroke="#000000" d="M775,-122.0225C775,-139.3734 775,-163 775,-163 775,-163 600.6641,-163 600.6641,-163"/>
<polygon fill="#000000" stroke="#000000" points="600.6641,-159.5001 590.6641,-163 600.664,-166.5001 600.6641,-159.5001"/>
</g>
<!-- ScheduleComponent -->
<g id="node3" class="node">
<title>ScheduleComponent</title>
<polygon fill="#ffffb3" stroke="#000000" points="687.1499,-122 554.8501,-122 554.8501,-86 687.1499,-86 687.1499,-122"/>
<text text-anchor="middle" x="621" y="-99.8" font-family="Times,serif" font-size="14.00" fill="#000000">ScheduleComponent</text>
</g>
<!-- ScheduleComponent&#45;&gt;ScheduleModule -->
<g id="edge3" class="edge">
<title>ScheduleComponent&#45;&gt;ScheduleModule</title>
<path fill="none" stroke="#000000" d="M572.5544,-122.1061C572.5544,-122.1061 572.5544,-140.991 572.5544,-140.991"/>
<polygon fill="#000000" stroke="#000000" points="569.0544,-140.9909 572.5544,-150.991 576.0544,-140.991 569.0544,-140.9909"/>
</g>
<!-- UpdateScheduleComponent -->
<g id="node4" class="node">
<title>UpdateScheduleComponent</title>
<polygon fill="#ffffb3" stroke="#000000" points="536.5758,-122 363.4242,-122 363.4242,-86 536.5758,-86 536.5758,-122"/>
<text text-anchor="middle" x="450" y="-99.8" font-family="Times,serif" font-size="14.00" fill="#000000">UpdateScheduleComponent</text>
</g>
<!-- UpdateScheduleComponent&#45;&gt;ScheduleModule -->
<g id="edge4" class="edge">
<title>UpdateScheduleComponent&#45;&gt;ScheduleModule</title>
<path fill="none" stroke="#000000" d="M508.0523,-122.1061C508.0523,-122.1061 508.0523,-140.991 508.0523,-140.991"/>
<polygon fill="#000000" stroke="#000000" points="504.5523,-140.9909 508.0523,-150.991 511.5523,-140.991 504.5523,-140.9909"/>
</g>
<!-- ActivityEntryModule -->
<g id="node6" class="node">
<title>ActivityEntryModule</title>
<polygon fill="#8dd3c7" stroke="#000000" points="339.038,-122 336.038,-126 315.038,-126 312.038,-122 202.962,-122 202.962,-86 339.038,-86 339.038,-122"/>
<text text-anchor="middle" x="271" y="-99.8" font-family="Times,serif" font-size="14.00" fill="#000000">ActivityEntryModule</text>
</g>
<!-- ActivityEntryModule&#45;&gt;ScheduleModule -->
<g id="edge5" class="edge">
<title>ActivityEntryModule&#45;&gt;ScheduleModule</title>
<path fill="none" stroke="#000000" d="M271,-122.0225C271,-139.3734 271,-163 271,-163 271,-163 469.335,-163 469.335,-163"/>
<polygon fill="#000000" stroke="#000000" points="469.335,-166.5001 479.335,-163 469.3349,-159.5001 469.335,-166.5001"/>
</g>
<!-- AddActivityEntryModule -->
<g id="node7" class="node">
<title>AddActivityEntryModule</title>
<polygon fill="#8dd3c7" stroke="#000000" points="184.1442,-122 181.1442,-126 160.1442,-126 157.1442,-122 23.8558,-122 23.8558,-86 184.1442,-86 184.1442,-122"/>
<text text-anchor="middle" x="104" y="-99.8" font-family="Times,serif" font-size="14.00" fill="#000000">AddActivityEntryModule</text>
</g>
<!-- AddActivityEntryModule&#45;&gt;ScheduleModule -->
<g id="edge6" class="edge">
<title>AddActivityEntryModule&#45;&gt;ScheduleModule</title>
<path fill="none" stroke="#000000" d="M104,-122.2843C104,-143.3211 104,-175 104,-175 104,-175 469.5366,-175 469.5366,-175"/>
<polygon fill="#000000" stroke="#000000" points="469.5367,-178.5001 479.5366,-175 469.5366,-171.5001 469.5367,-178.5001"/>
</g>
</g>
</svg>
