<?xml version="1.0" encoding="UTF-8" standalone="no"?>
<!DOCTYPE svg PUBLIC "-//W3C//DTD SVG 1.1//EN"
 "http://www.w3.org/Graphics/SVG/1.1/DTD/svg11.dtd">
<!-- Generated by graphviz version 2.40.1 (20161225.0304)
 -->
<!-- Title: dependencies Pages: 1 -->
<svg width="1023pt" height="211pt"
 viewBox="0.00 0.00 1023.00 211.00" xmlns="http://www.w3.org/2000/svg" xmlns:xlink="http://www.w3.org/1999/xlink">
<g id="graph0" class="graph" transform="scale(1 1) rotate(0) translate(4 207)">
<title>dependencies</title>
<polygon fill="#ffffff" stroke="transparent" points="-4,4 -4,-207 1019,-207 1019,4 -4,4"/>
<text text-anchor="start" x="486.5091" y="-42.4" font-family="sans-serif" font-weight="bold" font-size="14.00" fill="#000000">Legend</text>
<polygon fill="#ffffb3" stroke="transparent" points="273.5,-10 273.5,-30 293.5,-30 293.5,-10 273.5,-10"/>
<text text-anchor="start" x="297.129" y="-15.4" font-family="sans-serif" font-size="14.00" fill="#000000"> &#160;Declarations</text>
<polygon fill="#8dd3c7" stroke="transparent" points="386.5,-10 386.5,-30 406.5,-30 406.5,-10 386.5,-10"/>
<text text-anchor="start" x="410.2251" y="-15.4" font-family="sans-serif" font-size="14.00" fill="#000000"> &#160;Module</text>
<polygon fill="#80b1d3" stroke="transparent" points="472.5,-10 472.5,-30 492.5,-30 492.5,-10 472.5,-10"/>
<text text-anchor="start" x="496.2812" y="-15.4" font-family="sans-serif" font-size="14.00" fill="#000000"> &#160;Bootstrap</text>
<polygon fill="#fdb462" stroke="transparent" points="569.5,-10 569.5,-30 589.5,-30 589.5,-10 569.5,-10"/>
<text text-anchor="start" x="593.1732" y="-15.4" font-family="sans-serif" font-size="14.00" fill="#000000"> &#160;Providers</text>
<polygon fill="#fb8072" stroke="transparent" points="665.5,-10 665.5,-30 685.5,-30 685.5,-10 665.5,-10"/>
<text text-anchor="start" x="689.2258" y="-15.4" font-family="sans-serif" font-size="14.00" fill="#000000"> &#160;Exports</text>
<g id="clust1" class="cluster">
<title>cluster_ContabilidadModule</title>
<polygon fill="none" stroke="#000000" stroke-dasharray="1,5" points="8,-70 8,-195 1007,-195 1007,-70 8,-70"/>
</g>
<g id="clust2" class="cluster">
<title>cluster_ContabilidadModule_declarations</title>
<polygon fill="none" stroke="#000000" points="16,-78 16,-130 999,-130 999,-78 16,-78"/>
</g>
<!-- BalanceComponent -->
<g id="node1" class="node">
<title>BalanceComponent</title>
<polygon fill="#ffffb3" stroke="#000000" points="991.4187,-122 864.5813,-122 864.5813,-86 991.4187,-86 991.4187,-122"/>
<text text-anchor="middle" x="928" y="-99.8" font-family="Times,serif" font-size="14.00" fill="#000000">BalanceComponent</text>
</g>
<!-- ContabilidadModule -->
<g id="node7" class="node">
<title>ContabilidadModule</title>
<polygon fill="#8dd3c7" stroke="#000000" points="598.8781,-187 595.8781,-191 574.8781,-191 571.8781,-187 467.1219,-187 467.1219,-151 598.8781,-151 598.8781,-187"/>
<text text-anchor="middle" x="533" y="-164.8" font-family="Times,serif" font-size="14.00" fill="#000000">ContabilidadModule</text>
</g>
<!-- BalanceComponent&#45;&gt;ContabilidadModule -->
<g id="edge1" class="edge">
<title>BalanceComponent&#45;&gt;ContabilidadModule</title>
<path fill="none" stroke="#000000" d="M928,-122.2843C928,-143.3211 928,-175 928,-175 928,-175 609.1141,-175 609.1141,-175"/>
<polygon fill="#000000" stroke="#000000" points="609.1142,-171.5001 599.1141,-175 609.1141,-178.5001 609.1142,-171.5001"/>
</g>
<!-- ContabilidadComponent -->
<g id="node2" class="node">
<title>ContabilidadComponent</title>
<polygon fill="#ffffb3" stroke="#000000" points="846.661,-122 693.339,-122 693.339,-86 846.661,-86 846.661,-122"/>
<text text-anchor="middle" x="770" y="-99.8" font-family="Times,serif" font-size="14.00" fill="#000000">ContabilidadComponent</text>
</g>
<!-- ContabilidadComponent&#45;&gt;ContabilidadModule -->
<g id="edge2" class="edge">
<title>ContabilidadComponent&#45;&gt;ContabilidadModule</title>
<path fill="none" stroke="#000000" d="M770,-122.0225C770,-139.3734 770,-163 770,-163 770,-163 609.0177,-163 609.0177,-163"/>
<polygon fill="#000000" stroke="#000000" points="609.0177,-159.5001 599.0177,-163 609.0177,-166.5001 609.0177,-159.5001"/>
</g>
<!-- ExpensesComponent -->
<g id="node3" class="node">
<title>ExpensesComponent</title>
<polygon fill="#ffffb3" stroke="#000000" points="675.2036,-122 540.7964,-122 540.7964,-86 675.2036,-86 675.2036,-122"/>
<text text-anchor="middle" x="608" y="-99.8" font-family="Times,serif" font-size="14.00" fill="#000000">ExpensesComponent</text>
</g>
<!-- ExpensesComponent&#45;&gt;ContabilidadModule -->
<g id="edge3" class="edge">
<title>ExpensesComponent&#45;&gt;ContabilidadModule</title>
<path fill="none" stroke="#000000" d="M569.9187,-122.1061C569.9187,-122.1061 569.9187,-140.991 569.9187,-140.991"/>
<polygon fill="#000000" stroke="#000000" points="566.4187,-140.9909 569.9187,-150.991 573.4187,-140.991 566.4187,-140.9909"/>
</g>
<!-- IncomesComponent -->
<g id="node4" class="node">
<title>IncomesComponent</title>
<polygon fill="#ffffb3" stroke="#000000" points="523.2576,-122 394.7424,-122 394.7424,-86 523.2576,-86 523.2576,-122"/>
<text text-anchor="middle" x="459" y="-99.8" font-family="Times,serif" font-size="14.00" fill="#000000">IncomesComponent</text>
</g>
<!-- IncomesComponent&#45;&gt;ContabilidadModule -->
<g id="edge4" class="edge">
<title>IncomesComponent&#45;&gt;ContabilidadModule</title>
<path fill="none" stroke="#000000" d="M495.2199,-122.1061C495.2199,-122.1061 495.2199,-140.991 495.2199,-140.991"/>
<polygon fill="#000000" stroke="#000000" points="491.7199,-140.9909 495.2199,-150.991 498.7199,-140.991 491.7199,-140.9909"/>
</g>
<!-- InsertExpenseComponent -->
<g id="node5" class="node">
<title>InsertExpenseComponent</title>
<polygon fill="#ffffb3" stroke="#000000" points="376.1302,-122 215.8698,-122 215.8698,-86 376.1302,-86 376.1302,-122"/>
<text text-anchor="middle" x="296" y="-99.8" font-family="Times,serif" font-size="14.00" fill="#000000">InsertExpenseComponent</text>
</g>
<!-- InsertExpenseComponent&#45;&gt;ContabilidadModule -->
<g id="edge5" class="edge">
<title>InsertExpenseComponent&#45;&gt;ContabilidadModule</title>
<path fill="none" stroke="#000000" d="M296,-122.0225C296,-139.3734 296,-163 296,-163 296,-163 456.9823,-163 456.9823,-163"/>
<polygon fill="#000000" stroke="#000000" points="456.9823,-166.5001 466.9823,-163 456.9823,-159.5001 456.9823,-166.5001"/>
</g>
<!-- ResumeIncomesComponent -->
<g id="node6" class="node">
<title>ResumeIncomesComponent</title>
<polygon fill="#ffffb3" stroke="#000000" points="197.8585,-122 24.1415,-122 24.1415,-86 197.8585,-86 197.8585,-122"/>
<text text-anchor="middle" x="111" y="-99.8" font-family="Times,serif" font-size="14.00" fill="#000000">ResumeIncomesComponent</text>
</g>
<!-- ResumeIncomesComponent&#45;&gt;ContabilidadModule -->
<g id="edge6" class="edge">
<title>ResumeIncomesComponent&#45;&gt;ContabilidadModule</title>
<path fill="none" stroke="#000000" d="M111,-122.2843C111,-143.3211 111,-175 111,-175 111,-175 457.0625,-175 457.0625,-175"/>
<polygon fill="#000000" stroke="#000000" points="457.0625,-178.5001 467.0625,-175 457.0625,-171.5001 457.0625,-178.5001"/>
</g>
</g>
</svg>
